%TF.GenerationSoftware,KiCad,Pcbnew,8.0.8*%
%TF.CreationDate,2025-02-10T09:04:11+01:00*%
%TF.ProjectId,TrackyBoard,54726163-6b79-4426-9f61-72642e6b6963,rev?*%
%TF.SameCoordinates,Original*%
%TF.FileFunction,Profile,NP*%
%FSLAX46Y46*%
G04 Gerber Fmt 4.6, Leading zero omitted, Abs format (unit mm)*
G04 Created by KiCad (PCBNEW 8.0.8) date 2025-02-10 09:04:11*
%MOMM*%
%LPD*%
G01*
G04 APERTURE LIST*
%TA.AperFunction,Profile*%
%ADD10C,0.200000*%
%TD*%
G04 APERTURE END LIST*
D10*
X180447740Y-49152397D02*
G75*
G02*
X181987600Y-50689191I-40J-1539903D01*
G01*
X180447740Y-49152397D02*
X135627401Y-49090660D01*
X143045261Y-105417539D02*
X142912208Y-149244005D01*
X180874800Y-51765200D02*
G75*
G02*
X177874800Y-51765200I-1500000J0D01*
G01*
X177874800Y-51765200D02*
G75*
G02*
X180874800Y-51765200I1500000J0D01*
G01*
X138533000Y-102209600D02*
G75*
G02*
X135533000Y-102209600I-1500000J0D01*
G01*
X135533000Y-102209600D02*
G75*
G02*
X138533000Y-102209600I1500000J0D01*
G01*
X134127400Y-50590661D02*
G75*
G02*
X135627401Y-49090700I1500000J-39D01*
G01*
X143045261Y-105417539D02*
X135579062Y-105417539D01*
X182003700Y-104036164D02*
G75*
G02*
X180503699Y-105536134I-1500000J30D01*
G01*
X138576600Y-51714400D02*
G75*
G02*
X135576600Y-51714400I-1500000J0D01*
G01*
X135576600Y-51714400D02*
G75*
G02*
X138576600Y-51714400I1500000J0D01*
G01*
X135579062Y-105417539D02*
G75*
G02*
X134079060Y-103917538I-1J1500001D01*
G01*
X180545600Y-102308130D02*
G75*
G02*
X177545600Y-102308130I-1500000J0D01*
G01*
X177545600Y-102308130D02*
G75*
G02*
X180545600Y-102308130I1500000J0D01*
G01*
X173026009Y-148969206D02*
G75*
G02*
X171526008Y-150469236I-1500101J71D01*
G01*
X144031209Y-150469207D02*
G75*
G02*
X142912242Y-149244008I-1J1123572D01*
G01*
X182003700Y-104036164D02*
X181987600Y-50689191D01*
X134079061Y-103917538D02*
X134127400Y-50590661D01*
X144031209Y-150469207D02*
X171526008Y-150469207D01*
X173013501Y-105537834D02*
X180503699Y-105536165D01*
X173013501Y-105537834D02*
X173026009Y-148969206D01*
M02*
