%TF.GenerationSoftware,KiCad,Pcbnew,8.0.8*%
%TF.CreationDate,2025-02-10T09:04:11+01:00*%
%TF.ProjectId,TrackyBoard,54726163-6b79-4426-9f61-72642e6b6963,rev?*%
%TF.SameCoordinates,Original*%
%TF.FileFunction,Soldermask,Bot*%
%TF.FilePolarity,Negative*%
%FSLAX46Y46*%
G04 Gerber Fmt 4.6, Leading zero omitted, Abs format (unit mm)*
G04 Created by KiCad (PCBNEW 8.0.8) date 2025-02-10 09:04:11*
%MOMM*%
%LPD*%
G01*
G04 APERTURE LIST*
G04 Aperture macros list*
%AMRoundRect*
0 Rectangle with rounded corners*
0 $1 Rounding radius*
0 $2 $3 $4 $5 $6 $7 $8 $9 X,Y pos of 4 corners*
0 Add a 4 corners polygon primitive as box body*
4,1,4,$2,$3,$4,$5,$6,$7,$8,$9,$2,$3,0*
0 Add four circle primitives for the rounded corners*
1,1,$1+$1,$2,$3*
1,1,$1+$1,$4,$5*
1,1,$1+$1,$6,$7*
1,1,$1+$1,$8,$9*
0 Add four rect primitives between the rounded corners*
20,1,$1+$1,$2,$3,$4,$5,0*
20,1,$1+$1,$4,$5,$6,$7,0*
20,1,$1+$1,$6,$7,$8,$9,0*
20,1,$1+$1,$8,$9,$2,$3,0*%
G04 Aperture macros list end*
%ADD10RoundRect,0.250000X-0.350000X-0.625000X0.350000X-0.625000X0.350000X0.625000X-0.350000X0.625000X0*%
%ADD11O,1.200000X1.750000*%
%ADD12R,1.700000X1.700000*%
%ADD13O,1.700000X1.700000*%
%ADD14R,1.600000X1.600000*%
%ADD15C,1.600000*%
%ADD16RoundRect,0.250000X0.350000X0.625000X-0.350000X0.625000X-0.350000X-0.625000X0.350000X-0.625000X0*%
%ADD17R,1.500000X1.000000*%
%ADD18C,1.400000*%
G04 APERTURE END LIST*
D10*
%TO.C,J16*%
X171975868Y-52349400D03*
D11*
X173975868Y-52349400D03*
%TD*%
D12*
%TO.C,J20*%
X141366000Y-101549200D03*
D13*
X143906000Y-101549200D03*
X146446000Y-101549200D03*
%TD*%
D14*
%TO.C,C1*%
X155382149Y-111074200D03*
D15*
X160382149Y-111074200D03*
%TD*%
D16*
%TO.C,J1*%
X158810200Y-97781200D03*
D11*
X156810200Y-97781200D03*
%TD*%
D12*
%TO.C,J19*%
X174675800Y-101676200D03*
D13*
X172135800Y-101676200D03*
X169595800Y-101676200D03*
%TD*%
D12*
%TO.C,J2*%
X156540200Y-91592400D03*
D13*
X159080200Y-91592400D03*
%TD*%
D10*
%TO.C,J15*%
X162179000Y-52349400D03*
D11*
X164179000Y-52349400D03*
%TD*%
D10*
%TO.C,J14*%
X152382134Y-52349400D03*
D11*
X154382134Y-52349400D03*
%TD*%
D12*
%TO.C,J18*%
X174645800Y-96926400D03*
D13*
X172105800Y-96926400D03*
X169565800Y-96926400D03*
%TD*%
D11*
%TO.C,J13*%
X144585268Y-52349400D03*
D10*
X142585268Y-52349400D03*
%TD*%
D12*
%TO.C,J22*%
X141340600Y-96799400D03*
D13*
X143880600Y-96799400D03*
X146420600Y-96799400D03*
%TD*%
D12*
%TO.C,J17*%
X174645800Y-92176600D03*
D13*
X172105800Y-92176600D03*
X169565800Y-92176600D03*
%TD*%
D17*
%TO.C,JP1*%
X156159000Y-72222600D03*
X156159000Y-73522600D03*
%TD*%
%TO.C,JP2*%
X159867600Y-73522600D03*
X159867600Y-72222600D03*
%TD*%
D18*
%TO.C,U1*%
X144017808Y-148885335D03*
X146557808Y-148885335D03*
X144017808Y-146345335D03*
X146557808Y-146345335D03*
X144017808Y-143805335D03*
X146557808Y-143805335D03*
X144017808Y-141265335D03*
X146557808Y-141265335D03*
X144017808Y-138725335D03*
X146557808Y-138725335D03*
X144017808Y-136185335D03*
X146557808Y-136185335D03*
X144017808Y-133645335D03*
X146557808Y-133645335D03*
X144017808Y-131105335D03*
X146557808Y-131105335D03*
X144017808Y-128565335D03*
X146557808Y-128565335D03*
X144017808Y-126025335D03*
X146557808Y-126025335D03*
X169417808Y-148885335D03*
X171957808Y-148885335D03*
X169417808Y-146345335D03*
X171957808Y-146345335D03*
X169417808Y-143805335D03*
X171957808Y-143805335D03*
X169417808Y-141265335D03*
X171957808Y-141265335D03*
X169417808Y-138725335D03*
X171957808Y-138725335D03*
X169417808Y-136185335D03*
X171957808Y-136185335D03*
X169417808Y-133645335D03*
X171957808Y-133645335D03*
X169417808Y-131105335D03*
X171957808Y-131105335D03*
X169417808Y-128565335D03*
X171957808Y-128565335D03*
X169417808Y-126025335D03*
X171957808Y-126025335D03*
%TD*%
D12*
%TO.C,J6*%
X147111800Y-63474600D03*
D13*
X149651800Y-63474600D03*
%TD*%
D12*
%TO.C,J5*%
X147061000Y-78740000D03*
D13*
X149601000Y-78740000D03*
%TD*%
D12*
%TO.C,J4*%
X140746400Y-82829400D03*
D13*
X138206400Y-82829400D03*
%TD*%
D12*
%TO.C,J10*%
X152191800Y-63474600D03*
D13*
X154731800Y-63474600D03*
%TD*%
D12*
%TO.C,J11*%
X171196000Y-78638400D03*
D13*
X173736000Y-78638400D03*
%TD*%
%TO.C,J3*%
X162433000Y-82829400D03*
D12*
X164973000Y-82829400D03*
%TD*%
D13*
%TO.C,J8*%
X173756400Y-63500000D03*
D12*
X171216400Y-63500000D03*
%TD*%
D13*
%TO.C,J12*%
X178938000Y-63474600D03*
D12*
X176398000Y-63474600D03*
%TD*%
%TO.C,J21*%
X141264400Y-91998800D03*
D13*
X143804400Y-91998800D03*
X146344400Y-91998800D03*
%TD*%
%TO.C,J7*%
X178836400Y-78638400D03*
D12*
X176296400Y-78638400D03*
%TD*%
D13*
%TO.C,J9*%
X154681000Y-78740000D03*
D12*
X152141000Y-78740000D03*
%TD*%
M02*
