M48
; DRILL file {KiCad 8.0.8} date 2025-02-10T09:04:07+0100
; FORMAT={-:-/ absolute / inch / decimal}
; #@! TF.CreationDate,2025-02-10T09:04:07+01:00
; #@! TF.GenerationSoftware,Kicad,Pcbnew,8.0.8
; #@! TF.FileFunction,Plated,1,2,PTH
FMAT,2
INCH
; #@! TA.AperFunction,Plated,PTH,ComponentDrill
T1C0.0295
; #@! TA.AperFunction,Plated,PTH,ComponentDrill
T2C0.0315
; #@! TA.AperFunction,Plated,PTH,ComponentDrill
T3C0.0394
%
G90
G05
T1
X5.6136Y-2.061
X5.6923Y-2.061
X5.9993Y-2.061
X6.078Y-2.061
X6.1736Y-3.8497
X6.2524Y-3.8497
X6.385Y-2.061
X6.4637Y-2.061
X6.7707Y-2.061
X6.8494Y-2.061
T2
X5.67Y-4.9616
X5.67Y-5.0616
X5.67Y-5.1616
X5.67Y-5.2616
X5.67Y-5.3616
X5.67Y-5.4616
X5.67Y-5.5616
X5.67Y-5.6616
X5.67Y-5.7616
X5.67Y-5.8616
X5.77Y-4.9616
X5.77Y-5.0616
X5.77Y-5.1616
X5.77Y-5.2616
X5.77Y-5.3616
X5.77Y-5.4616
X5.77Y-5.5616
X5.77Y-5.6616
X5.77Y-5.7616
X5.77Y-5.8616
X6.1174Y-4.373
X6.3143Y-4.373
X6.67Y-4.9616
X6.67Y-5.0616
X6.67Y-5.1616
X6.67Y-5.2616
X6.67Y-5.3616
X6.67Y-5.4616
X6.67Y-5.5616
X6.67Y-5.6616
X6.67Y-5.7616
X6.67Y-5.8616
X6.77Y-4.9616
X6.77Y-5.0616
X6.77Y-5.1616
X6.77Y-5.2616
X6.77Y-5.3616
X6.77Y-5.4616
X6.77Y-5.5616
X6.77Y-5.6616
X6.77Y-5.7616
X6.77Y-5.8616
T3
X5.4412Y-3.261
X5.5412Y-3.261
X5.5616Y-3.622
X5.5646Y-3.811
X5.5656Y-3.998
X5.6616Y-3.622
X5.6646Y-3.811
X5.6656Y-3.998
X5.7616Y-3.622
X5.7646Y-3.811
X5.7656Y-3.998
X5.7898Y-3.1
X5.7918Y-2.499
X5.8898Y-3.1
X5.8918Y-2.499
X5.9898Y-3.1
X5.9918Y-2.499
X6.0898Y-3.1
X6.0918Y-2.499
X6.163Y-3.606
X6.263Y-3.606
X6.395Y-3.261
X6.495Y-3.261
X6.6758Y-3.629
X6.6758Y-3.816
X6.677Y-4.003
X6.74Y-3.096
X6.7408Y-2.5
X6.7758Y-3.629
X6.7758Y-3.816
X6.777Y-4.003
X6.84Y-3.096
X6.8408Y-2.5
X6.8758Y-3.629
X6.8758Y-3.816
X6.877Y-4.003
X6.9408Y-3.096
X6.9448Y-2.499
X7.0408Y-3.096
X7.0448Y-2.499
M30
