%TF.GenerationSoftware,KiCad,Pcbnew,8.0.8*%
%TF.CreationDate,2025-02-10T09:04:11+01:00*%
%TF.ProjectId,TrackyBoard,54726163-6b79-4426-9f61-72642e6b6963,rev?*%
%TF.SameCoordinates,Original*%
%TF.FileFunction,Copper,L2,Bot*%
%TF.FilePolarity,Positive*%
%FSLAX46Y46*%
G04 Gerber Fmt 4.6, Leading zero omitted, Abs format (unit mm)*
G04 Created by KiCad (PCBNEW 8.0.8) date 2025-02-10 09:04:11*
%MOMM*%
%LPD*%
G01*
G04 APERTURE LIST*
G04 Aperture macros list*
%AMRoundRect*
0 Rectangle with rounded corners*
0 $1 Rounding radius*
0 $2 $3 $4 $5 $6 $7 $8 $9 X,Y pos of 4 corners*
0 Add a 4 corners polygon primitive as box body*
4,1,4,$2,$3,$4,$5,$6,$7,$8,$9,$2,$3,0*
0 Add four circle primitives for the rounded corners*
1,1,$1+$1,$2,$3*
1,1,$1+$1,$4,$5*
1,1,$1+$1,$6,$7*
1,1,$1+$1,$8,$9*
0 Add four rect primitives between the rounded corners*
20,1,$1+$1,$2,$3,$4,$5,0*
20,1,$1+$1,$4,$5,$6,$7,0*
20,1,$1+$1,$6,$7,$8,$9,0*
20,1,$1+$1,$8,$9,$2,$3,0*%
G04 Aperture macros list end*
%TA.AperFunction,ComponentPad*%
%ADD10RoundRect,0.250000X-0.350000X-0.625000X0.350000X-0.625000X0.350000X0.625000X-0.350000X0.625000X0*%
%TD*%
%TA.AperFunction,ComponentPad*%
%ADD11O,1.200000X1.750000*%
%TD*%
%TA.AperFunction,ComponentPad*%
%ADD12R,1.700000X1.700000*%
%TD*%
%TA.AperFunction,ComponentPad*%
%ADD13O,1.700000X1.700000*%
%TD*%
%TA.AperFunction,ComponentPad*%
%ADD14R,1.600000X1.600000*%
%TD*%
%TA.AperFunction,ComponentPad*%
%ADD15C,1.600000*%
%TD*%
%TA.AperFunction,ComponentPad*%
%ADD16RoundRect,0.250000X0.350000X0.625000X-0.350000X0.625000X-0.350000X-0.625000X0.350000X-0.625000X0*%
%TD*%
%TA.AperFunction,SMDPad,CuDef*%
%ADD17R,1.500000X1.000000*%
%TD*%
%TA.AperFunction,ComponentPad*%
%ADD18C,1.400000*%
%TD*%
%TA.AperFunction,Conductor*%
%ADD19C,0.500000*%
%TD*%
%TA.AperFunction,Conductor*%
%ADD20C,1.000000*%
%TD*%
%TA.AperFunction,Conductor*%
%ADD21C,2.000000*%
%TD*%
G04 APERTURE END LIST*
D10*
%TO.P,J16,1,Pin_1*%
%TO.N,Net-(J12-Pin_1)*%
X171975868Y-52349400D03*
D11*
%TO.P,J16,2,Pin_2*%
%TO.N,Net-(J12-Pin_2)*%
X173975868Y-52349400D03*
%TD*%
D12*
%TO.P,J20,1,Pin_1*%
%TO.N,/Servo4*%
X141366000Y-101549200D03*
D13*
%TO.P,J20,2,Pin_2*%
%TO.N,5V*%
X143906000Y-101549200D03*
%TO.P,J20,3,Pin_3*%
%TO.N,GND*%
X146446000Y-101549200D03*
%TD*%
D14*
%TO.P,C1,1*%
%TO.N,Net-(J1-Pin_2)*%
X155382149Y-111074200D03*
D15*
%TO.P,C1,2*%
%TO.N,GND*%
X160382149Y-111074200D03*
%TD*%
D16*
%TO.P,J1,1,Pin_1*%
%TO.N,GND*%
X158810200Y-97781200D03*
D11*
%TO.P,J1,2,Pin_2*%
%TO.N,Net-(J1-Pin_2)*%
X156810200Y-97781200D03*
%TD*%
D12*
%TO.P,J19,1,Pin_1*%
%TO.N,/Servo3*%
X174675800Y-101676200D03*
D13*
%TO.P,J19,2,Pin_2*%
%TO.N,5V*%
X172135800Y-101676200D03*
%TO.P,J19,3,Pin_3*%
%TO.N,GND*%
X169595800Y-101676200D03*
%TD*%
D12*
%TO.P,J2,1,Pin_1*%
%TO.N,GND*%
X156540200Y-91592400D03*
D13*
%TO.P,J2,2,Pin_2*%
%TO.N,Net-(J2-Pin_2)*%
X159080200Y-91592400D03*
%TD*%
D10*
%TO.P,J15,1,Pin_1*%
%TO.N,Net-(J15-Pin_1)*%
X162179000Y-52349400D03*
D11*
%TO.P,J15,2,Pin_2*%
%TO.N,Net-(J15-Pin_2)*%
X164179000Y-52349400D03*
%TD*%
D10*
%TO.P,J14,1,Pin_1*%
%TO.N,Net-(J10-Pin_1)*%
X152382134Y-52349400D03*
D11*
%TO.P,J14,2,Pin_2*%
%TO.N,Net-(J10-Pin_2)*%
X154382134Y-52349400D03*
%TD*%
D12*
%TO.P,J18,1,Pin_1*%
%TO.N,/Servo2*%
X174645800Y-96926400D03*
D13*
%TO.P,J18,2,Pin_2*%
%TO.N,5V*%
X172105800Y-96926400D03*
%TO.P,J18,3,Pin_3*%
%TO.N,GND*%
X169565800Y-96926400D03*
%TD*%
D11*
%TO.P,J13,2,Pin_2*%
%TO.N,Net-(J13-Pin_2)*%
X144585268Y-52349400D03*
D10*
%TO.P,J13,1,Pin_1*%
%TO.N,Net-(J13-Pin_1)*%
X142585268Y-52349400D03*
%TD*%
D12*
%TO.P,J22,1,Pin_1*%
%TO.N,/Opt*%
X141340600Y-96799400D03*
D13*
%TO.P,J22,2,Pin_2*%
%TO.N,5V*%
X143880600Y-96799400D03*
%TO.P,J22,3,Pin_3*%
%TO.N,GND*%
X146420600Y-96799400D03*
%TD*%
D12*
%TO.P,J17,1,Pin_1*%
%TO.N,/Servo1*%
X174645800Y-92176600D03*
D13*
%TO.P,J17,2,Pin_2*%
%TO.N,5V*%
X172105800Y-92176600D03*
%TO.P,J17,3,Pin_3*%
%TO.N,GND*%
X169565800Y-92176600D03*
%TD*%
D17*
%TO.P,JP1,1,A*%
%TO.N,Net-(J3-Pin_2)*%
X156159000Y-72222600D03*
%TO.P,JP1,2,B*%
%TO.N,+5V*%
X156159000Y-73522600D03*
%TD*%
%TO.P,JP2,2,B*%
%TO.N,Net-(J2-Pin_2)*%
X159867600Y-73522600D03*
%TO.P,JP2,1,A*%
%TO.N,Net-(J3-Pin_2)*%
X159867600Y-72222600D03*
%TD*%
D18*
%TO.P,U1,40,CLK*%
%TO.N,unconnected-(U1-CLK-Pad40)*%
X144017808Y-148885335D03*
%TO.P,U1,39,SD0*%
%TO.N,unconnected-(U1-SD0-Pad39)*%
X146557808Y-148885335D03*
%TO.P,U1,38,SD1*%
%TO.N,unconnected-(U1-SD1-Pad38)*%
X144017808Y-146345335D03*
%TO.P,U1,37,TD0*%
%TO.N,unconnected-(U1-TD0-Pad37)*%
X146557808Y-146345335D03*
%TO.P,U1,36,IO_02*%
%TO.N,unconnected-(U1-IO_02-Pad36)*%
X144017808Y-143805335D03*
%TO.P,U1,35,VCC_(USB)*%
%TO.N,5V*%
X146557808Y-143805335D03*
%TO.P,U1,34,IO_00*%
%TO.N,unconnected-(U1-IO_00-Pad34)*%
X144017808Y-141265335D03*
%TO.P,U1,33,GND*%
%TO.N,GND*%
X146557808Y-141265335D03*
%TO.P,U1,32,IO_04*%
%TO.N,unconnected-(U1-IO_04-Pad32)*%
X144017808Y-138725335D03*
%TO.P,U1,31,IO_16/D4*%
%TO.N,/In1_Av*%
X146557808Y-138725335D03*
%TO.P,U1,30,IO_12/TDI*%
%TO.N,unconnected-(U1-IO_12{slash}TDI-Pad30)*%
X144017808Y-136185335D03*
%TO.P,U1,29,IO_17/D3*%
%TO.N,/In2_Av*%
X146557808Y-136185335D03*
%TO.P,U1,28,IO_32*%
%TO.N,/Servo4*%
X144017808Y-133645335D03*
%TO.P,U1,27,IO_21/D2/SDA*%
%TO.N,/In3_Av*%
X146557808Y-133645335D03*
%TO.P,U1,26,IO_25*%
%TO.N,/Opt*%
X144017808Y-131105335D03*
%TO.P,U1,25,IO_22/D1/SCL*%
%TO.N,/In4_Av*%
X146557808Y-131105335D03*
%TO.P,U1,24,IO_27*%
%TO.N,/LED*%
X144017808Y-128565335D03*
%TO.P,U1,23,RXD*%
%TO.N,unconnected-(U1-RXD-Pad23)*%
X146557808Y-128565335D03*
%TO.P,U1,22,GND*%
%TO.N,GND*%
X144017808Y-126025335D03*
%TO.P,U1,21,TXD*%
%TO.N,unconnected-(U1-TXD-Pad21)*%
X146557808Y-126025335D03*
%TO.P,U1,20,IO_10/SD3*%
%TO.N,unconnected-(U1-IO_10{slash}SD3-Pad20)*%
X169417808Y-148885335D03*
%TO.P,U1,19,CMD*%
%TO.N,unconnected-(U1-CMD-Pad19)*%
X171957808Y-148885335D03*
%TO.P,U1,18,IO_13/TCK*%
%TO.N,unconnected-(U1-IO_13{slash}TCK-Pad18)*%
X169417808Y-146345335D03*
%TO.P,U1,17,IO_09/SD2*%
%TO.N,unconnected-(U1-IO_09{slash}SD2-Pad17)*%
X171957808Y-146345335D03*
%TO.P,U1,16,3V3*%
%TO.N,3.3V*%
X169417808Y-143805335D03*
%TO.P,U1,15,NC*%
%TO.N,unconnected-(U1-NC-Pad15)*%
X171957808Y-143805335D03*
%TO.P,U1,14,IO_05/D8*%
%TO.N,unconnected-(U1-IO_05{slash}D8-Pad14)*%
X169417808Y-141265335D03*
%TO.P,U1,13,IO_14/TMS*%
%TO.N,unconnected-(U1-IO_14{slash}TMS-Pad13)*%
X171957808Y-141265335D03*
%TO.P,U1,12,IO_23/D7*%
%TO.N,/In2_Ar*%
X169417808Y-138725335D03*
%TO.P,U1,11,IO_34*%
%TO.N,/Servo3*%
X171957808Y-138725335D03*
%TO.P,U1,10,IO_19/D6*%
%TO.N,/In1_Ar*%
X169417808Y-136185335D03*
%TO.P,U1,9,IO_33*%
%TO.N,/Servo2*%
X171957808Y-136185335D03*
%TO.P,U1,8,IO_18/D5*%
%TO.N,/In4_Ar*%
X169417808Y-133645335D03*
%TO.P,U1,7,IO_35*%
%TO.N,/Servo1*%
X171957808Y-133645335D03*
%TO.P,U1,6,IO_26/D0*%
%TO.N,/In3_Ar*%
X169417808Y-131105335D03*
%TO.P,U1,5,IO_39/SVN*%
%TO.N,unconnected-(U1-IO_39{slash}SVN-Pad5)*%
X171957808Y-131105335D03*
%TO.P,U1,4,IO_36/SVP/A0*%
%TO.N,unconnected-(U1-IO_36{slash}SVP{slash}A0-Pad4)*%
X169417808Y-128565335D03*
%TO.P,U1,3,NC*%
%TO.N,unconnected-(U1-NC-Pad3)*%
X171957808Y-128565335D03*
%TO.P,U1,2,RST*%
%TO.N,unconnected-(U1-RST-Pad2)*%
X169417808Y-126025335D03*
%TO.P,U1,1,GND*%
%TO.N,GND*%
X171957808Y-126025335D03*
%TD*%
D12*
%TO.P,J6,1,Pin_1*%
%TO.N,Net-(J13-Pin_1)*%
X147111800Y-63474600D03*
D13*
%TO.P,J6,2,Pin_2*%
%TO.N,Net-(J13-Pin_2)*%
X149651800Y-63474600D03*
%TD*%
D12*
%TO.P,J5,1,Pin_1*%
%TO.N,/In1_Av*%
X147061000Y-78740000D03*
D13*
%TO.P,J5,2,Pin_2*%
%TO.N,/In2_Av*%
X149601000Y-78740000D03*
%TD*%
D12*
%TO.P,J4,1,Pin_1*%
%TO.N,GND*%
X140746400Y-82829400D03*
D13*
%TO.P,J4,2,Pin_2*%
%TO.N,Net-(J3-Pin_2)*%
X138206400Y-82829400D03*
%TD*%
D12*
%TO.P,J10,1,Pin_1*%
%TO.N,Net-(J10-Pin_1)*%
X152191800Y-63474600D03*
D13*
%TO.P,J10,2,Pin_2*%
%TO.N,Net-(J10-Pin_2)*%
X154731800Y-63474600D03*
%TD*%
D12*
%TO.P,J11,1,Pin_1*%
%TO.N,/In3_Ar*%
X171196000Y-78638400D03*
D13*
%TO.P,J11,2,Pin_2*%
%TO.N,/In4_Ar*%
X173736000Y-78638400D03*
%TD*%
%TO.P,J3,2,Pin_2*%
%TO.N,Net-(J3-Pin_2)*%
X162433000Y-82829400D03*
D12*
%TO.P,J3,1,Pin_1*%
%TO.N,GND*%
X164973000Y-82829400D03*
%TD*%
D13*
%TO.P,J8,2,Pin_2*%
%TO.N,Net-(J15-Pin_2)*%
X173756400Y-63500000D03*
D12*
%TO.P,J8,1,Pin_1*%
%TO.N,Net-(J15-Pin_1)*%
X171216400Y-63500000D03*
%TD*%
D13*
%TO.P,J12,2,Pin_2*%
%TO.N,Net-(J12-Pin_2)*%
X178938000Y-63474600D03*
D12*
%TO.P,J12,1,Pin_1*%
%TO.N,Net-(J12-Pin_1)*%
X176398000Y-63474600D03*
%TD*%
%TO.P,J21,1,Pin_1*%
%TO.N,/LED*%
X141264400Y-91998800D03*
D13*
%TO.P,J21,2,Pin_2*%
%TO.N,5V*%
X143804400Y-91998800D03*
%TO.P,J21,3,Pin_3*%
%TO.N,GND*%
X146344400Y-91998800D03*
%TD*%
%TO.P,J7,2,Pin_2*%
%TO.N,/In2_Ar*%
X178836400Y-78638400D03*
D12*
%TO.P,J7,1,Pin_1*%
%TO.N,/In1_Ar*%
X176296400Y-78638400D03*
%TD*%
D13*
%TO.P,J9,2,Pin_2*%
%TO.N,/In4_Av*%
X154681000Y-78740000D03*
D12*
%TO.P,J9,1,Pin_1*%
%TO.N,/In3_Av*%
X152141000Y-78740000D03*
%TD*%
D19*
%TO.N,/In3_Av*%
X157443400Y-83982948D02*
X156586698Y-84839650D01*
X157443400Y-77509600D02*
X157443400Y-83982948D01*
X152400000Y-75996800D02*
X152704800Y-75996800D01*
X152704800Y-75996800D02*
X152730200Y-76022200D01*
X152730200Y-76022200D02*
X155956000Y-76022200D01*
X152141000Y-76255800D02*
X152400000Y-75996800D01*
X152141000Y-78740000D02*
X152141000Y-76255800D01*
X155956000Y-76022200D02*
X157443400Y-77509600D01*
%TO.N,/In2_Av*%
X149601000Y-76078000D02*
X149601000Y-78740000D01*
X150382200Y-75296800D02*
X149601000Y-76078000D01*
X156449150Y-75296800D02*
X150382200Y-75296800D01*
X158499000Y-77346650D02*
X156449150Y-75296800D01*
X158499000Y-80666100D02*
X158499000Y-77346650D01*
X158473600Y-84197350D02*
X158473600Y-80691499D01*
X153097000Y-89573950D02*
X158473600Y-84197350D01*
X151622065Y-136185335D02*
X153097000Y-134710400D01*
X158473600Y-80691499D02*
X158499000Y-80666100D01*
X146557808Y-136185335D02*
X151622065Y-136185335D01*
X153097000Y-134710400D02*
X153097000Y-89573950D01*
%TO.N,/In4_Ar*%
X173736000Y-76022200D02*
X173736000Y-78638400D01*
X173634400Y-75920600D02*
X173736000Y-76022200D01*
X173634400Y-75615800D02*
X173634400Y-75920600D01*
X173011775Y-74993175D02*
X173634400Y-75615800D01*
X169557375Y-74993175D02*
X173011775Y-74993175D01*
X168656000Y-75894550D02*
X169557375Y-74993175D01*
X167375450Y-87618800D02*
X168656000Y-86338250D01*
X166903400Y-87618800D02*
X167375450Y-87618800D01*
X164070650Y-90451550D02*
X166903400Y-87618800D01*
X168656000Y-86338250D02*
X168656000Y-75894550D01*
X164070650Y-132895385D02*
X164070650Y-90451550D01*
X164820600Y-133645335D02*
X164070650Y-132895385D01*
X169417808Y-133645335D02*
X164820600Y-133645335D01*
%TO.N,/In3_Ar*%
X171196000Y-87045800D02*
X171196000Y-78638400D01*
X170345100Y-87896700D02*
X171196000Y-87045800D01*
X164931665Y-91052535D02*
X168087500Y-87896700D01*
X165827135Y-131105335D02*
X164931665Y-130209865D01*
X168087500Y-87896700D02*
X170345100Y-87896700D01*
X169417808Y-131105335D02*
X165827135Y-131105335D01*
%TO.N,/In2_Ar*%
X162956935Y-138725335D02*
X169417808Y-138725335D01*
X162049000Y-137817400D02*
X162956935Y-138725335D01*
X162049000Y-89233200D02*
X162049000Y-137817400D01*
X165100000Y-86182200D02*
X162049000Y-89233200D01*
X166832150Y-86182200D02*
X165100000Y-86182200D01*
X167081200Y-85933150D02*
X166832150Y-86182200D01*
X178836400Y-74061400D02*
X178003200Y-73228200D01*
X178836400Y-78638400D02*
X178836400Y-74061400D01*
%TO.N,/In1_Ar*%
X176296400Y-74620200D02*
X176296400Y-78638400D01*
%TO.N,/In2_Ar*%
X168960800Y-73228200D02*
X167081200Y-75107800D01*
%TO.N,/In1_Ar*%
X175691800Y-74015600D02*
X176296400Y-74620200D01*
X167868600Y-75692000D02*
X169545000Y-74015600D01*
%TO.N,/In3_Ar*%
X164931665Y-130209865D02*
X164931665Y-91052535D01*
%TO.N,/In2_Ar*%
X167081200Y-75107800D02*
X167081200Y-85933150D01*
%TO.N,/In1_Ar*%
X167868600Y-86135700D02*
X167868600Y-75692000D01*
X167088500Y-86915800D02*
X167868600Y-86135700D01*
X163245800Y-89673200D02*
X166003200Y-86915800D01*
X164480935Y-136185335D02*
X163245800Y-134950200D01*
X169417808Y-136185335D02*
X164480935Y-136185335D01*
X163245800Y-134950200D02*
X163245800Y-89673200D01*
%TO.N,/In2_Ar*%
X178003200Y-73228200D02*
X168960800Y-73228200D01*
%TO.N,/In1_Ar*%
X169545000Y-74015600D02*
X175691800Y-74015600D01*
X166003200Y-86915800D02*
X167088500Y-86915800D01*
%TO.N,/In3_Av*%
X156638150Y-84839650D02*
X157505400Y-83972400D01*
X156586698Y-84839650D02*
X156638150Y-84839650D01*
X156298574Y-85127774D02*
X156586698Y-84839650D01*
X156298574Y-85127774D02*
X154799974Y-86626374D01*
%TO.N,/In4_Av*%
X154681000Y-84595200D02*
X154330400Y-84945800D01*
X154681000Y-78740000D02*
X154681000Y-84595200D01*
D20*
%TO.N,Net-(J2-Pin_2)*%
X160148986Y-73803986D02*
X160148986Y-90523614D01*
X159867600Y-73522600D02*
X160148986Y-73803986D01*
X160148986Y-90523614D02*
X159080200Y-91592400D01*
D19*
%TO.N,/In1_Av*%
X153797000Y-137312400D02*
X152384065Y-138725335D01*
X152384065Y-138725335D02*
X146557808Y-138725335D01*
X153797000Y-89865200D02*
X153797000Y-137312400D01*
X157348699Y-86337600D02*
X157324600Y-86337600D01*
X159173600Y-84512699D02*
X157348699Y-86337600D01*
X159173600Y-80981456D02*
X159173600Y-84512699D01*
X159198994Y-77056694D02*
X159198994Y-80956063D01*
X148389800Y-74596800D02*
X156739100Y-74596800D01*
X159198994Y-80956063D02*
X159173600Y-80981456D01*
X156739100Y-74596800D02*
X159198994Y-77056694D01*
X147061000Y-75925600D02*
X148389800Y-74596800D01*
X157324600Y-86337600D02*
X153797000Y-89865200D01*
X147061000Y-78740000D02*
X147061000Y-75925600D01*
%TO.N,/In3_Av*%
X152141000Y-78740000D02*
X152141000Y-77398800D01*
D20*
%TO.N,GND*%
X171957808Y-124282008D02*
X170942000Y-123266200D01*
X171957808Y-126025335D02*
X171957808Y-124282008D01*
D21*
X169595800Y-121920000D02*
X170942000Y-123266200D01*
X169595800Y-101676200D02*
X169595800Y-121920000D01*
D20*
%TO.N,Net-(J3-Pin_2)*%
X138206400Y-75026600D02*
X138206400Y-82829400D01*
X141010400Y-72222600D02*
X138206400Y-75026600D01*
X156159000Y-72222600D02*
X141010400Y-72222600D01*
X162433000Y-73038000D02*
X162433000Y-75844400D01*
X161617600Y-72222600D02*
X162433000Y-73038000D01*
X159867600Y-72222600D02*
X161617600Y-72222600D01*
X156159000Y-72222600D02*
X159867600Y-72222600D01*
X162433000Y-82829400D02*
X162433000Y-74193400D01*
D19*
%TO.N,/In4_Av*%
X151155400Y-130987800D02*
X151155400Y-125839800D01*
X151037865Y-131105335D02*
X151155400Y-130987800D01*
X151155400Y-125839800D02*
X151290600Y-125704600D01*
X146557808Y-131105335D02*
X151037865Y-131105335D01*
%TO.N,/In3_Av*%
X152019000Y-127587200D02*
X151990600Y-127558800D01*
X152019000Y-133299200D02*
X152019000Y-127587200D01*
X151990600Y-127558800D02*
X151990600Y-89436400D01*
X151672865Y-133645335D02*
X152019000Y-133299200D01*
X146557808Y-133645335D02*
X151672865Y-133645335D01*
%TO.N,/In4_Av*%
X151290600Y-87985600D02*
X154330400Y-84945800D01*
%TO.N,/In3_Av*%
X154609800Y-86816549D02*
X155030400Y-86395949D01*
X154609800Y-86817200D02*
X154609800Y-86816549D01*
X151990600Y-89436400D02*
X154609800Y-86817200D01*
%TO.N,/In4_Av*%
X151290600Y-87706200D02*
X151290600Y-87985600D01*
X151290600Y-87985600D02*
X151290600Y-125704600D01*
%TD*%
%TA.AperFunction,Conductor*%
%TO.N,GND*%
G36*
X159067820Y-85782361D02*
G01*
X159123753Y-85824233D01*
X159148170Y-85889697D01*
X159148486Y-85898543D01*
X159148486Y-90057829D01*
X159128801Y-90124868D01*
X159112167Y-90145511D01*
X159047168Y-90210509D01*
X158985844Y-90243993D01*
X158970296Y-90246355D01*
X158844796Y-90257336D01*
X158844786Y-90257338D01*
X158616544Y-90318494D01*
X158616535Y-90318498D01*
X158402371Y-90418364D01*
X158402369Y-90418365D01*
X158208800Y-90553903D01*
X158086484Y-90676219D01*
X158025161Y-90709703D01*
X157955469Y-90704719D01*
X157899536Y-90662847D01*
X157882621Y-90631870D01*
X157833554Y-90500313D01*
X157833550Y-90500306D01*
X157747390Y-90385212D01*
X157747387Y-90385209D01*
X157632293Y-90299049D01*
X157632286Y-90299045D01*
X157497579Y-90248803D01*
X157497572Y-90248801D01*
X157438044Y-90242400D01*
X156790200Y-90242400D01*
X156790200Y-91159388D01*
X156733193Y-91126475D01*
X156606026Y-91092400D01*
X156474374Y-91092400D01*
X156347207Y-91126475D01*
X156290200Y-91159388D01*
X156290200Y-90242400D01*
X155642355Y-90242400D01*
X155582827Y-90248801D01*
X155582820Y-90248803D01*
X155448113Y-90299045D01*
X155448106Y-90299049D01*
X155333012Y-90385209D01*
X155333009Y-90385212D01*
X155246849Y-90500306D01*
X155246845Y-90500313D01*
X155196603Y-90635020D01*
X155196601Y-90635027D01*
X155190200Y-90694555D01*
X155190200Y-91342400D01*
X156107188Y-91342400D01*
X156074275Y-91399407D01*
X156040200Y-91526574D01*
X156040200Y-91658226D01*
X156074275Y-91785393D01*
X156107188Y-91842400D01*
X155190200Y-91842400D01*
X155190200Y-92490244D01*
X155196601Y-92549772D01*
X155196603Y-92549779D01*
X155246845Y-92684486D01*
X155246849Y-92684493D01*
X155333009Y-92799587D01*
X155333012Y-92799590D01*
X155448106Y-92885750D01*
X155448113Y-92885754D01*
X155582820Y-92935996D01*
X155582827Y-92935998D01*
X155642355Y-92942399D01*
X155642372Y-92942400D01*
X156290200Y-92942400D01*
X156290200Y-92025412D01*
X156347207Y-92058325D01*
X156474374Y-92092400D01*
X156606026Y-92092400D01*
X156733193Y-92058325D01*
X156790200Y-92025412D01*
X156790200Y-92942400D01*
X157438028Y-92942400D01*
X157438044Y-92942399D01*
X157497572Y-92935998D01*
X157497579Y-92935996D01*
X157632286Y-92885754D01*
X157632293Y-92885750D01*
X157747387Y-92799590D01*
X157747390Y-92799587D01*
X157833550Y-92684493D01*
X157833554Y-92684486D01*
X157882622Y-92552929D01*
X157924493Y-92496995D01*
X157989957Y-92472578D01*
X158058230Y-92487430D01*
X158086485Y-92508581D01*
X158208799Y-92630895D01*
X158284935Y-92684206D01*
X158402365Y-92766432D01*
X158402367Y-92766433D01*
X158402370Y-92766435D01*
X158616537Y-92866303D01*
X158616543Y-92866304D01*
X158616544Y-92866305D01*
X158631088Y-92870202D01*
X158844792Y-92927463D01*
X159015519Y-92942400D01*
X159080199Y-92948059D01*
X159080200Y-92948059D01*
X159080201Y-92948059D01*
X159144881Y-92942400D01*
X159315608Y-92927463D01*
X159543863Y-92866303D01*
X159758030Y-92766435D01*
X159951601Y-92630895D01*
X160118695Y-92463801D01*
X160254235Y-92270230D01*
X160354103Y-92056063D01*
X160415263Y-91827808D01*
X160426243Y-91702301D01*
X160451695Y-91637234D01*
X160462074Y-91625445D01*
X160926126Y-91161395D01*
X161035618Y-90997528D01*
X161059939Y-90938811D01*
X161103780Y-90884409D01*
X161170074Y-90862344D01*
X161237773Y-90879623D01*
X161285384Y-90930760D01*
X161298500Y-90986265D01*
X161298500Y-109890626D01*
X161278815Y-109957665D01*
X161226011Y-110003420D01*
X161156853Y-110013364D01*
X161103377Y-109992201D01*
X161034636Y-109944068D01*
X161034632Y-109944066D01*
X160828475Y-109847934D01*
X160828466Y-109847930D01*
X160608759Y-109789060D01*
X160608748Y-109789058D01*
X160382151Y-109769234D01*
X160382147Y-109769234D01*
X160155549Y-109789058D01*
X160155538Y-109789060D01*
X159935831Y-109847930D01*
X159935822Y-109847934D01*
X159729665Y-109944066D01*
X159729661Y-109944068D01*
X159656675Y-109995173D01*
X159656675Y-109995174D01*
X160335702Y-110674200D01*
X160329488Y-110674200D01*
X160227755Y-110701459D01*
X160136543Y-110754120D01*
X160062069Y-110828594D01*
X160009408Y-110919806D01*
X159982149Y-111021539D01*
X159982149Y-111027752D01*
X159303123Y-110348726D01*
X159303122Y-110348726D01*
X159252017Y-110421712D01*
X159252015Y-110421716D01*
X159155883Y-110627873D01*
X159155879Y-110627882D01*
X159097009Y-110847589D01*
X159097007Y-110847600D01*
X159077183Y-111074197D01*
X159077183Y-111074202D01*
X159097007Y-111300799D01*
X159097009Y-111300810D01*
X159155879Y-111520517D01*
X159155884Y-111520531D01*
X159252012Y-111726678D01*
X159303123Y-111799672D01*
X159982149Y-111120646D01*
X159982149Y-111126861D01*
X160009408Y-111228594D01*
X160062069Y-111319806D01*
X160136543Y-111394280D01*
X160227755Y-111446941D01*
X160329488Y-111474200D01*
X160335701Y-111474200D01*
X159656675Y-112153225D01*
X159729662Y-112204332D01*
X159729670Y-112204336D01*
X159935817Y-112300464D01*
X159935831Y-112300469D01*
X160155538Y-112359339D01*
X160155549Y-112359341D01*
X160382147Y-112379166D01*
X160382151Y-112379166D01*
X160608748Y-112359341D01*
X160608759Y-112359339D01*
X160828466Y-112300469D01*
X160828475Y-112300465D01*
X161034631Y-112204334D01*
X161103376Y-112156198D01*
X161169582Y-112133871D01*
X161237349Y-112150881D01*
X161285163Y-112201829D01*
X161298500Y-112257773D01*
X161298500Y-137891318D01*
X161298500Y-137891320D01*
X161298499Y-137891320D01*
X161327340Y-138036307D01*
X161327343Y-138036317D01*
X161383914Y-138172892D01*
X161416812Y-138222127D01*
X161416813Y-138222130D01*
X161466046Y-138295814D01*
X161466052Y-138295821D01*
X162478519Y-139308287D01*
X162478521Y-139308289D01*
X162507993Y-139327980D01*
X162552205Y-139357521D01*
X162601440Y-139390419D01*
X162601441Y-139390419D01*
X162601442Y-139390420D01*
X162601444Y-139390421D01*
X162738017Y-139446991D01*
X162738022Y-139446993D01*
X162738026Y-139446993D01*
X162738027Y-139446994D01*
X162883014Y-139475835D01*
X162883017Y-139475835D01*
X162883018Y-139475835D01*
X163030852Y-139475835D01*
X168418461Y-139475835D01*
X168485500Y-139495520D01*
X168517414Y-139525106D01*
X168526829Y-139537574D01*
X168691245Y-139687458D01*
X168691247Y-139687460D01*
X168880403Y-139804580D01*
X168880404Y-139804580D01*
X168880407Y-139804582D01*
X169074332Y-139879709D01*
X169129732Y-139922281D01*
X169153323Y-139988048D01*
X169137612Y-140056128D01*
X169087588Y-140104907D01*
X169074341Y-140110957D01*
X168926296Y-140168310D01*
X168880409Y-140186087D01*
X168880403Y-140186089D01*
X168691247Y-140303209D01*
X168691245Y-140303211D01*
X168526828Y-140453096D01*
X168392751Y-140630643D01*
X168392746Y-140630651D01*
X168293583Y-140829796D01*
X168293577Y-140829811D01*
X168232693Y-141043797D01*
X168232692Y-141043799D01*
X168212165Y-141265334D01*
X168212165Y-141265335D01*
X168232692Y-141486870D01*
X168232693Y-141486872D01*
X168293577Y-141700858D01*
X168293583Y-141700873D01*
X168392746Y-141900018D01*
X168392751Y-141900026D01*
X168526828Y-142077573D01*
X168691245Y-142227458D01*
X168691247Y-142227460D01*
X168880403Y-142344580D01*
X168880404Y-142344580D01*
X168880407Y-142344582D01*
X169074332Y-142419709D01*
X169129732Y-142462281D01*
X169153323Y-142528048D01*
X169137612Y-142596128D01*
X169087588Y-142644907D01*
X169074341Y-142650957D01*
X168926296Y-142708310D01*
X168880409Y-142726087D01*
X168880403Y-142726089D01*
X168691247Y-142843209D01*
X168691245Y-142843211D01*
X168526828Y-142993096D01*
X168392751Y-143170643D01*
X168392746Y-143170651D01*
X168293583Y-143369796D01*
X168293577Y-143369811D01*
X168232693Y-143583797D01*
X168232692Y-143583799D01*
X168212165Y-143805334D01*
X168212165Y-143805335D01*
X168232692Y-144026870D01*
X168232693Y-144026872D01*
X168293577Y-144240858D01*
X168293583Y-144240873D01*
X168392746Y-144440018D01*
X168392751Y-144440026D01*
X168526828Y-144617573D01*
X168691245Y-144767458D01*
X168691247Y-144767460D01*
X168880403Y-144884580D01*
X168880404Y-144884580D01*
X168880407Y-144884582D01*
X169074332Y-144959709D01*
X169129732Y-145002281D01*
X169153323Y-145068048D01*
X169137612Y-145136128D01*
X169087588Y-145184907D01*
X169074341Y-145190957D01*
X168926296Y-145248310D01*
X168880409Y-145266087D01*
X168880403Y-145266089D01*
X168691247Y-145383209D01*
X168691245Y-145383211D01*
X168526828Y-145533096D01*
X168392751Y-145710643D01*
X168392746Y-145710651D01*
X168293583Y-145909796D01*
X168293577Y-145909811D01*
X168232693Y-146123797D01*
X168232692Y-146123799D01*
X168212165Y-146345334D01*
X168212165Y-146345335D01*
X168232692Y-146566870D01*
X168232693Y-146566872D01*
X168293577Y-146780858D01*
X168293583Y-146780873D01*
X168392746Y-146980018D01*
X168392751Y-146980026D01*
X168526828Y-147157573D01*
X168691245Y-147307458D01*
X168691247Y-147307460D01*
X168880403Y-147424580D01*
X168880404Y-147424580D01*
X168880407Y-147424582D01*
X169074332Y-147499709D01*
X169129732Y-147542281D01*
X169153323Y-147608048D01*
X169137612Y-147676128D01*
X169087588Y-147724907D01*
X169074341Y-147730957D01*
X168926296Y-147788310D01*
X168880409Y-147806087D01*
X168880403Y-147806089D01*
X168691247Y-147923209D01*
X168691245Y-147923211D01*
X168526828Y-148073096D01*
X168392751Y-148250643D01*
X168392746Y-148250651D01*
X168293583Y-148449796D01*
X168293577Y-148449811D01*
X168232693Y-148663797D01*
X168232692Y-148663799D01*
X168212165Y-148885334D01*
X168212165Y-148885335D01*
X168232692Y-149106870D01*
X168232693Y-149106872D01*
X168293577Y-149320858D01*
X168293583Y-149320873D01*
X168392746Y-149520018D01*
X168392751Y-149520026D01*
X168526828Y-149697573D01*
X168587706Y-149753070D01*
X168623988Y-149812781D01*
X168622227Y-149882629D01*
X168582984Y-149940436D01*
X168518717Y-149967851D01*
X168504168Y-149968707D01*
X147471448Y-149968707D01*
X147404409Y-149949022D01*
X147358654Y-149896218D01*
X147348710Y-149827060D01*
X147377735Y-149763504D01*
X147387910Y-149753070D01*
X147448787Y-149697573D01*
X147570913Y-149535853D01*
X147582866Y-149520024D01*
X147682037Y-149320863D01*
X147742923Y-149106871D01*
X147763451Y-148885335D01*
X147742923Y-148663799D01*
X147682037Y-148449807D01*
X147682032Y-148449796D01*
X147582869Y-148250651D01*
X147582864Y-148250643D01*
X147448787Y-148073096D01*
X147284370Y-147923211D01*
X147284368Y-147923209D01*
X147095212Y-147806089D01*
X147095203Y-147806085D01*
X147001764Y-147769887D01*
X146901283Y-147730960D01*
X146845883Y-147688389D01*
X146822292Y-147622623D01*
X146838003Y-147554542D01*
X146888027Y-147505763D01*
X146901274Y-147499712D01*
X147095209Y-147424582D01*
X147284370Y-147307459D01*
X147448789Y-147157571D01*
X147582866Y-146980024D01*
X147682037Y-146780863D01*
X147742923Y-146566871D01*
X147763451Y-146345335D01*
X147742923Y-146123799D01*
X147682037Y-145909807D01*
X147682032Y-145909796D01*
X147582869Y-145710651D01*
X147582864Y-145710643D01*
X147448787Y-145533096D01*
X147284370Y-145383211D01*
X147284368Y-145383209D01*
X147095212Y-145266089D01*
X147095203Y-145266085D01*
X147001764Y-145229887D01*
X146901283Y-145190960D01*
X146845883Y-145148389D01*
X146822292Y-145082623D01*
X146838003Y-145014542D01*
X146888027Y-144965763D01*
X146901274Y-144959712D01*
X147095209Y-144884582D01*
X147284370Y-144767459D01*
X147448789Y-144617571D01*
X147582866Y-144440024D01*
X147682037Y-144240863D01*
X147742923Y-144026871D01*
X147763451Y-143805335D01*
X147742923Y-143583799D01*
X147682037Y-143369807D01*
X147682032Y-143369796D01*
X147582869Y-143170651D01*
X147582864Y-143170643D01*
X147448787Y-142993096D01*
X147284370Y-142843211D01*
X147284368Y-142843209D01*
X147095212Y-142726089D01*
X147095206Y-142726086D01*
X146965775Y-142675945D01*
X146900592Y-142650693D01*
X146845193Y-142608121D01*
X146821602Y-142542354D01*
X146837313Y-142474274D01*
X146887337Y-142425495D01*
X146900594Y-142419440D01*
X147094985Y-142344133D01*
X147094986Y-142344132D01*
X147211135Y-142272215D01*
X146604255Y-141665335D01*
X146610469Y-141665335D01*
X146712202Y-141638076D01*
X146803414Y-141585415D01*
X146877888Y-141510941D01*
X146930549Y-141419729D01*
X146957808Y-141317996D01*
X146957808Y-141311781D01*
X147566668Y-141920641D01*
X147566669Y-141920641D01*
X147582439Y-141899760D01*
X147582440Y-141899757D01*
X147681567Y-141700685D01*
X147742429Y-141486774D01*
X147762949Y-141265335D01*
X147762949Y-141265334D01*
X147742429Y-141043895D01*
X147681567Y-140829984D01*
X147582441Y-140630912D01*
X147582439Y-140630909D01*
X147566668Y-140610026D01*
X146957808Y-141218887D01*
X146957808Y-141212674D01*
X146930549Y-141110941D01*
X146877888Y-141019729D01*
X146803414Y-140945255D01*
X146712202Y-140892594D01*
X146610469Y-140865335D01*
X146604255Y-140865335D01*
X147211135Y-140258453D01*
X147211134Y-140258452D01*
X147094989Y-140186538D01*
X147094983Y-140186535D01*
X146900594Y-140111229D01*
X146845192Y-140068656D01*
X146821602Y-140002889D01*
X146837313Y-139934809D01*
X146887337Y-139886030D01*
X146900580Y-139879981D01*
X147095209Y-139804582D01*
X147284370Y-139687459D01*
X147448789Y-139537571D01*
X147458202Y-139525105D01*
X147514312Y-139483471D01*
X147557155Y-139475835D01*
X152457985Y-139475835D01*
X152555527Y-139456431D01*
X152602978Y-139446993D01*
X152739560Y-139390419D01*
X152788794Y-139357521D01*
X152788799Y-139357518D01*
X152813136Y-139341256D01*
X152862481Y-139308287D01*
X154379952Y-137790816D01*
X154429186Y-137717129D01*
X154462084Y-137667895D01*
X154518658Y-137531313D01*
X154547500Y-137386318D01*
X154547500Y-112498699D01*
X154567185Y-112431660D01*
X154619989Y-112385905D01*
X154671500Y-112374699D01*
X156230020Y-112374699D01*
X156230021Y-112374699D01*
X156289632Y-112368291D01*
X156424480Y-112317996D01*
X156539695Y-112231746D01*
X156625945Y-112116531D01*
X156676240Y-111981683D01*
X156682649Y-111922073D01*
X156682648Y-110226328D01*
X156676240Y-110166717D01*
X156625945Y-110031869D01*
X156625944Y-110031868D01*
X156625942Y-110031864D01*
X156539696Y-109916655D01*
X156539693Y-109916652D01*
X156424484Y-109830406D01*
X156424477Y-109830402D01*
X156289631Y-109780108D01*
X156289632Y-109780108D01*
X156230032Y-109773701D01*
X156230030Y-109773700D01*
X156230022Y-109773700D01*
X156230014Y-109773700D01*
X154671500Y-109773700D01*
X154604461Y-109754015D01*
X154558706Y-109701211D01*
X154547500Y-109649700D01*
X154547500Y-97419589D01*
X155709700Y-97419589D01*
X155709700Y-98142811D01*
X155710823Y-98149899D01*
X155731754Y-98282059D01*
X155736798Y-98313901D01*
X155790327Y-98478645D01*
X155868968Y-98632988D01*
X155970786Y-98773128D01*
X156093272Y-98895614D01*
X156233412Y-98997432D01*
X156387755Y-99076073D01*
X156552499Y-99129602D01*
X156723589Y-99156700D01*
X156723590Y-99156700D01*
X156896810Y-99156700D01*
X156896811Y-99156700D01*
X157067901Y-99129602D01*
X157232645Y-99076073D01*
X157386988Y-98997432D01*
X157527128Y-98895614D01*
X157635036Y-98787705D01*
X157696355Y-98754223D01*
X157766047Y-98759207D01*
X157821981Y-98801078D01*
X157828253Y-98810293D01*
X157867882Y-98874543D01*
X157991854Y-98998515D01*
X158141075Y-99090556D01*
X158141080Y-99090558D01*
X158307502Y-99145705D01*
X158307509Y-99145706D01*
X158410219Y-99156199D01*
X158560199Y-99156199D01*
X158560200Y-99156198D01*
X158560200Y-98061530D01*
X158579945Y-98081275D01*
X158665455Y-98130644D01*
X158760830Y-98156200D01*
X158859570Y-98156200D01*
X158954945Y-98130644D01*
X159040455Y-98081275D01*
X159060200Y-98061530D01*
X159060200Y-99156199D01*
X159210172Y-99156199D01*
X159210186Y-99156198D01*
X159312897Y-99145705D01*
X159479319Y-99090558D01*
X159479324Y-99090556D01*
X159628545Y-98998515D01*
X159752515Y-98874545D01*
X159844556Y-98725324D01*
X159844558Y-98725319D01*
X159899705Y-98558897D01*
X159899706Y-98558890D01*
X159910199Y-98456186D01*
X159910200Y-98456173D01*
X159910200Y-98031200D01*
X159090530Y-98031200D01*
X159110275Y-98011455D01*
X159159644Y-97925945D01*
X159185200Y-97830570D01*
X159185200Y-97731830D01*
X159159644Y-97636455D01*
X159110275Y-97550945D01*
X159090530Y-97531200D01*
X159910199Y-97531200D01*
X159910199Y-97106228D01*
X159910198Y-97106213D01*
X159899705Y-97003502D01*
X159844558Y-96837080D01*
X159844556Y-96837075D01*
X159752515Y-96687854D01*
X159628545Y-96563884D01*
X159479324Y-96471843D01*
X159479319Y-96471841D01*
X159312897Y-96416694D01*
X159312890Y-96416693D01*
X159210186Y-96406200D01*
X159060200Y-96406200D01*
X159060200Y-97500870D01*
X159040455Y-97481125D01*
X158954945Y-97431756D01*
X158859570Y-97406200D01*
X158760830Y-97406200D01*
X158665455Y-97431756D01*
X158579945Y-97481125D01*
X158560200Y-97500870D01*
X158560200Y-96406200D01*
X158410227Y-96406200D01*
X158410212Y-96406201D01*
X158307502Y-96416694D01*
X158141080Y-96471841D01*
X158141075Y-96471843D01*
X157991854Y-96563884D01*
X157867884Y-96687854D01*
X157828253Y-96752107D01*
X157776305Y-96798831D01*
X157707342Y-96810053D01*
X157643260Y-96782210D01*
X157635033Y-96774691D01*
X157527130Y-96666788D01*
X157527128Y-96666786D01*
X157386988Y-96564968D01*
X157232645Y-96486327D01*
X157067901Y-96432798D01*
X157067899Y-96432797D01*
X157067898Y-96432797D01*
X156936471Y-96411981D01*
X156896811Y-96405700D01*
X156723589Y-96405700D01*
X156683928Y-96411981D01*
X156552502Y-96432797D01*
X156387752Y-96486328D01*
X156233411Y-96564968D01*
X156176376Y-96606407D01*
X156093272Y-96666786D01*
X156093270Y-96666788D01*
X156093269Y-96666788D01*
X155970788Y-96789269D01*
X155970788Y-96789270D01*
X155970786Y-96789272D01*
X155963841Y-96798831D01*
X155868968Y-96929411D01*
X155790328Y-97083752D01*
X155736797Y-97248502D01*
X155714376Y-97390063D01*
X155709700Y-97419589D01*
X154547500Y-97419589D01*
X154547500Y-90227429D01*
X154567185Y-90160390D01*
X154583814Y-90139753D01*
X157745857Y-86977709D01*
X157764645Y-86962291D01*
X157774943Y-86955411D01*
X157777488Y-86953711D01*
X157827109Y-86920556D01*
X157827108Y-86920556D01*
X157827115Y-86920552D01*
X158936805Y-85810862D01*
X158998128Y-85777377D01*
X159067820Y-85782361D01*
G37*
%TD.AperFunction*%
%TA.AperFunction,Conductor*%
G36*
X146157808Y-141317996D02*
G01*
X146185067Y-141419729D01*
X146237728Y-141510941D01*
X146312202Y-141585415D01*
X146403414Y-141638076D01*
X146505147Y-141665335D01*
X146511362Y-141665335D01*
X145904479Y-142272215D01*
X146020631Y-142344133D01*
X146020632Y-142344134D01*
X146215021Y-142419440D01*
X146270422Y-142462013D01*
X146294013Y-142527780D01*
X146278302Y-142595860D01*
X146228278Y-142644639D01*
X146215021Y-142650694D01*
X146020409Y-142726086D01*
X146020403Y-142726089D01*
X145831247Y-142843209D01*
X145831245Y-142843211D01*
X145666828Y-142993096D01*
X145532751Y-143170643D01*
X145532746Y-143170651D01*
X145433583Y-143369796D01*
X145433577Y-143369811D01*
X145407074Y-143462962D01*
X145369795Y-143522056D01*
X145306485Y-143551613D01*
X145237246Y-143542251D01*
X145184059Y-143496941D01*
X145168542Y-143462962D01*
X145142038Y-143369811D01*
X145142037Y-143369807D01*
X145142032Y-143369796D01*
X145042869Y-143170651D01*
X145042864Y-143170643D01*
X144908787Y-142993096D01*
X144744370Y-142843211D01*
X144744368Y-142843209D01*
X144555212Y-142726089D01*
X144555203Y-142726085D01*
X144461764Y-142689887D01*
X144361283Y-142650960D01*
X144305883Y-142608389D01*
X144282292Y-142542623D01*
X144298003Y-142474542D01*
X144348027Y-142425763D01*
X144361274Y-142419712D01*
X144555209Y-142344582D01*
X144744370Y-142227459D01*
X144908789Y-142077571D01*
X145042866Y-141900024D01*
X145142037Y-141700863D01*
X145168803Y-141606790D01*
X145206080Y-141547702D01*
X145269389Y-141518144D01*
X145338629Y-141527506D01*
X145391815Y-141572815D01*
X145407333Y-141606795D01*
X145434044Y-141700677D01*
X145434047Y-141700683D01*
X145533172Y-141899754D01*
X145533174Y-141899756D01*
X145548946Y-141920641D01*
X146157808Y-141311780D01*
X146157808Y-141317996D01*
G37*
%TD.AperFunction*%
%TA.AperFunction,Conductor*%
G36*
X145338370Y-138988418D02*
G01*
X145391557Y-139033728D01*
X145407074Y-139067707D01*
X145433577Y-139160858D01*
X145433583Y-139160873D01*
X145532746Y-139360018D01*
X145532751Y-139360026D01*
X145666828Y-139537573D01*
X145831245Y-139687458D01*
X145831247Y-139687460D01*
X146020403Y-139804580D01*
X146020404Y-139804580D01*
X146020407Y-139804582D01*
X146215023Y-139879977D01*
X146270422Y-139922548D01*
X146294013Y-139988315D01*
X146278302Y-140056395D01*
X146228278Y-140105174D01*
X146215021Y-140111228D01*
X146020641Y-140186531D01*
X146020626Y-140186539D01*
X145904480Y-140258452D01*
X145904479Y-140258453D01*
X146511362Y-140865335D01*
X146505147Y-140865335D01*
X146403414Y-140892594D01*
X146312202Y-140945255D01*
X146237728Y-141019729D01*
X146185067Y-141110941D01*
X146157808Y-141212674D01*
X146157808Y-141218888D01*
X145548946Y-140610026D01*
X145548945Y-140610026D01*
X145533177Y-140630906D01*
X145434047Y-140829986D01*
X145434045Y-140829990D01*
X145407333Y-140923875D01*
X145370054Y-140982968D01*
X145306744Y-141012525D01*
X145237505Y-141003163D01*
X145184318Y-140957853D01*
X145168802Y-140923876D01*
X145142037Y-140829807D01*
X145142032Y-140829796D01*
X145042869Y-140630651D01*
X145042864Y-140630643D01*
X144908787Y-140453096D01*
X144744370Y-140303211D01*
X144744368Y-140303209D01*
X144555212Y-140186089D01*
X144555203Y-140186085D01*
X144461764Y-140149887D01*
X144361283Y-140110960D01*
X144305883Y-140068389D01*
X144282292Y-140002623D01*
X144298003Y-139934542D01*
X144348027Y-139885763D01*
X144361274Y-139879712D01*
X144555209Y-139804582D01*
X144744370Y-139687459D01*
X144908789Y-139537571D01*
X145042866Y-139360024D01*
X145142037Y-139160863D01*
X145168542Y-139067706D01*
X145205821Y-139008613D01*
X145269131Y-138979056D01*
X145338370Y-138988418D01*
G37*
%TD.AperFunction*%
%TA.AperFunction,Conductor*%
G36*
X136354947Y-49592162D02*
G01*
X136421959Y-49611939D01*
X136467641Y-49664806D01*
X136477489Y-49733978D01*
X136448377Y-49797494D01*
X136398111Y-49832343D01*
X136348742Y-49850757D01*
X136243433Y-49890035D01*
X135992290Y-50027170D01*
X135992282Y-50027175D01*
X135763212Y-50198654D01*
X135763194Y-50198670D01*
X135560870Y-50400994D01*
X135560854Y-50401012D01*
X135389375Y-50630082D01*
X135389370Y-50630090D01*
X135252235Y-50881233D01*
X135152228Y-51149362D01*
X135091404Y-51428966D01*
X135070990Y-51714398D01*
X135070990Y-51714401D01*
X135091404Y-51999833D01*
X135152228Y-52279437D01*
X135152230Y-52279443D01*
X135152231Y-52279446D01*
X135192910Y-52388509D01*
X135252235Y-52547566D01*
X135389370Y-52798709D01*
X135389375Y-52798717D01*
X135560854Y-53027787D01*
X135560870Y-53027805D01*
X135763194Y-53230129D01*
X135763212Y-53230145D01*
X135992282Y-53401624D01*
X135992290Y-53401629D01*
X136243433Y-53538764D01*
X136243432Y-53538764D01*
X136243436Y-53538765D01*
X136243439Y-53538767D01*
X136511554Y-53638769D01*
X136511560Y-53638770D01*
X136511562Y-53638771D01*
X136791166Y-53699595D01*
X136791168Y-53699595D01*
X136791172Y-53699596D01*
X137044820Y-53717737D01*
X137076599Y-53720010D01*
X137076600Y-53720010D01*
X137076601Y-53720010D01*
X137105195Y-53717964D01*
X137362028Y-53699596D01*
X137408113Y-53689571D01*
X137641637Y-53638771D01*
X137641637Y-53638770D01*
X137641646Y-53638769D01*
X137909761Y-53538767D01*
X138160915Y-53401626D01*
X138389995Y-53230139D01*
X138592339Y-53027795D01*
X138763826Y-52798715D01*
X138900967Y-52547561D01*
X139000969Y-52279446D01*
X139061796Y-51999828D01*
X139082210Y-51714400D01*
X139079348Y-51674383D01*
X141484768Y-51674383D01*
X141484768Y-53024401D01*
X141484769Y-53024418D01*
X141495268Y-53127196D01*
X141495269Y-53127199D01*
X141550453Y-53293731D01*
X141550455Y-53293736D01*
X141574138Y-53332132D01*
X141642556Y-53443056D01*
X141766612Y-53567112D01*
X141915934Y-53659214D01*
X142082471Y-53714399D01*
X142185259Y-53724900D01*
X142985276Y-53724899D01*
X142985284Y-53724898D01*
X142985287Y-53724898D01*
X143041570Y-53719148D01*
X143088065Y-53714399D01*
X143254602Y-53659214D01*
X143403924Y-53567112D01*
X143527980Y-53443056D01*
X143567578Y-53378856D01*
X143619526Y-53332132D01*
X143688488Y-53320909D01*
X143752571Y-53348752D01*
X143760798Y-53356272D01*
X143868340Y-53463814D01*
X144008480Y-53565632D01*
X144162823Y-53644273D01*
X144327567Y-53697802D01*
X144498657Y-53724900D01*
X144498658Y-53724900D01*
X144671878Y-53724900D01*
X144671879Y-53724900D01*
X144842969Y-53697802D01*
X145007713Y-53644273D01*
X145162056Y-53565632D01*
X145302196Y-53463814D01*
X145424682Y-53341328D01*
X145526500Y-53201188D01*
X145605141Y-53046845D01*
X145658670Y-52882101D01*
X145685768Y-52711011D01*
X145685768Y-51987789D01*
X145658670Y-51816699D01*
X145612428Y-51674383D01*
X151281634Y-51674383D01*
X151281634Y-53024401D01*
X151281635Y-53024418D01*
X151292134Y-53127196D01*
X151292135Y-53127199D01*
X151347319Y-53293731D01*
X151347321Y-53293736D01*
X151371004Y-53332132D01*
X151439422Y-53443056D01*
X151563478Y-53567112D01*
X151712800Y-53659214D01*
X151879337Y-53714399D01*
X151982125Y-53724900D01*
X152782142Y-53724899D01*
X152782150Y-53724898D01*
X152782153Y-53724898D01*
X152838436Y-53719148D01*
X152884931Y-53714399D01*
X153051468Y-53659214D01*
X153200790Y-53567112D01*
X153324846Y-53443056D01*
X153364444Y-53378856D01*
X153416392Y-53332132D01*
X153485354Y-53320909D01*
X153549437Y-53348752D01*
X153557664Y-53356272D01*
X153665206Y-53463814D01*
X153805346Y-53565632D01*
X153959689Y-53644273D01*
X154124433Y-53697802D01*
X154295523Y-53724900D01*
X154295524Y-53724900D01*
X154468744Y-53724900D01*
X154468745Y-53724900D01*
X154639835Y-53697802D01*
X154804579Y-53644273D01*
X154958922Y-53565632D01*
X155099062Y-53463814D01*
X155221548Y-53341328D01*
X155323366Y-53201188D01*
X155402007Y-53046845D01*
X155455536Y-52882101D01*
X155482634Y-52711011D01*
X155482634Y-51987789D01*
X155455536Y-51816699D01*
X155409294Y-51674383D01*
X161078500Y-51674383D01*
X161078500Y-53024401D01*
X161078501Y-53024418D01*
X161089000Y-53127196D01*
X161089001Y-53127199D01*
X161144185Y-53293731D01*
X161144187Y-53293736D01*
X161167870Y-53332132D01*
X161236288Y-53443056D01*
X161360344Y-53567112D01*
X161509666Y-53659214D01*
X161676203Y-53714399D01*
X161778991Y-53724900D01*
X162579008Y-53724899D01*
X162579016Y-53724898D01*
X162579019Y-53724898D01*
X162635302Y-53719148D01*
X162681797Y-53714399D01*
X162848334Y-53659214D01*
X162997656Y-53567112D01*
X163121712Y-53443056D01*
X163161310Y-53378856D01*
X163213258Y-53332132D01*
X163282220Y-53320909D01*
X163346303Y-53348752D01*
X163354530Y-53356272D01*
X163462072Y-53463814D01*
X163602212Y-53565632D01*
X163756555Y-53644273D01*
X163921299Y-53697802D01*
X164092389Y-53724900D01*
X164092390Y-53724900D01*
X164265610Y-53724900D01*
X164265611Y-53724900D01*
X164436701Y-53697802D01*
X164601445Y-53644273D01*
X164755788Y-53565632D01*
X164895928Y-53463814D01*
X165018414Y-53341328D01*
X165120232Y-53201188D01*
X165198873Y-53046845D01*
X165252402Y-52882101D01*
X165279500Y-52711011D01*
X165279500Y-51987789D01*
X165252402Y-51816699D01*
X165206160Y-51674383D01*
X170875368Y-51674383D01*
X170875368Y-53024401D01*
X170875369Y-53024418D01*
X170885868Y-53127196D01*
X170885869Y-53127199D01*
X170941053Y-53293731D01*
X170941055Y-53293736D01*
X170964738Y-53332132D01*
X171033156Y-53443056D01*
X171157212Y-53567112D01*
X171306534Y-53659214D01*
X171473071Y-53714399D01*
X171575859Y-53724900D01*
X172375876Y-53724899D01*
X172375884Y-53724898D01*
X172375887Y-53724898D01*
X172432170Y-53719148D01*
X172478665Y-53714399D01*
X172645202Y-53659214D01*
X172794524Y-53567112D01*
X172918580Y-53443056D01*
X172958178Y-53378856D01*
X173010126Y-53332132D01*
X173079088Y-53320909D01*
X173143171Y-53348752D01*
X173151398Y-53356272D01*
X173258940Y-53463814D01*
X173399080Y-53565632D01*
X173553423Y-53644273D01*
X173718167Y-53697802D01*
X173889257Y-53724900D01*
X173889258Y-53724900D01*
X174062478Y-53724900D01*
X174062479Y-53724900D01*
X174233569Y-53697802D01*
X174398313Y-53644273D01*
X174552656Y-53565632D01*
X174692796Y-53463814D01*
X174815282Y-53341328D01*
X174917100Y-53201188D01*
X174995741Y-53046845D01*
X175049270Y-52882101D01*
X175076368Y-52711011D01*
X175076368Y-51987789D01*
X175049270Y-51816699D01*
X174995741Y-51651955D01*
X174917100Y-51497612D01*
X174815282Y-51357472D01*
X174692796Y-51234986D01*
X174552656Y-51133168D01*
X174398313Y-51054527D01*
X174233569Y-51000998D01*
X174233567Y-51000997D01*
X174233566Y-51000997D01*
X174102139Y-50980181D01*
X174062479Y-50973900D01*
X173889257Y-50973900D01*
X173849596Y-50980181D01*
X173718170Y-51000997D01*
X173553420Y-51054528D01*
X173399079Y-51133168D01*
X173258941Y-51234985D01*
X173151398Y-51342528D01*
X173090075Y-51376012D01*
X173020383Y-51371028D01*
X172964450Y-51329156D01*
X172958178Y-51319943D01*
X172918580Y-51255744D01*
X172794524Y-51131688D01*
X172669427Y-51054528D01*
X172645204Y-51039587D01*
X172645199Y-51039585D01*
X172576918Y-51016959D01*
X172478665Y-50984401D01*
X172478663Y-50984400D01*
X172375878Y-50973900D01*
X171575866Y-50973900D01*
X171575848Y-50973901D01*
X171473071Y-50984400D01*
X171473068Y-50984401D01*
X171306536Y-51039585D01*
X171306531Y-51039587D01*
X171157210Y-51131689D01*
X171033157Y-51255742D01*
X170941055Y-51405063D01*
X170941054Y-51405066D01*
X170885869Y-51571603D01*
X170885869Y-51571604D01*
X170885868Y-51571604D01*
X170875368Y-51674383D01*
X165206160Y-51674383D01*
X165198873Y-51651955D01*
X165120232Y-51497612D01*
X165018414Y-51357472D01*
X164895928Y-51234986D01*
X164755788Y-51133168D01*
X164601445Y-51054527D01*
X164436701Y-51000998D01*
X164436699Y-51000997D01*
X164436698Y-51000997D01*
X164305271Y-50980181D01*
X164265611Y-50973900D01*
X164092389Y-50973900D01*
X164052728Y-50980181D01*
X163921302Y-51000997D01*
X163756552Y-51054528D01*
X163602211Y-51133168D01*
X163462073Y-51234985D01*
X163354530Y-51342528D01*
X163293207Y-51376012D01*
X163223515Y-51371028D01*
X163167582Y-51329156D01*
X163161310Y-51319943D01*
X163121712Y-51255744D01*
X162997656Y-51131688D01*
X162872559Y-51054528D01*
X162848336Y-51039587D01*
X162848331Y-51039585D01*
X162780050Y-51016959D01*
X162681797Y-50984401D01*
X162681795Y-50984400D01*
X162579010Y-50973900D01*
X161778998Y-50973900D01*
X161778980Y-50973901D01*
X161676203Y-50984400D01*
X161676200Y-50984401D01*
X161509668Y-51039585D01*
X161509663Y-51039587D01*
X161360342Y-51131689D01*
X161236289Y-51255742D01*
X161144187Y-51405063D01*
X161144186Y-51405066D01*
X161089001Y-51571603D01*
X161089001Y-51571604D01*
X161089000Y-51571604D01*
X161078500Y-51674383D01*
X155409294Y-51674383D01*
X155402007Y-51651955D01*
X155323366Y-51497612D01*
X155221548Y-51357472D01*
X155099062Y-51234986D01*
X154958922Y-51133168D01*
X154804579Y-51054527D01*
X154639835Y-51000998D01*
X154639833Y-51000997D01*
X154639832Y-51000997D01*
X154508405Y-50980181D01*
X154468745Y-50973900D01*
X154295523Y-50973900D01*
X154255862Y-50980181D01*
X154124436Y-51000997D01*
X153959686Y-51054528D01*
X153805345Y-51133168D01*
X153665207Y-51234985D01*
X153557664Y-51342528D01*
X153496341Y-51376012D01*
X153426649Y-51371028D01*
X153370716Y-51329156D01*
X153364444Y-51319943D01*
X153324846Y-51255744D01*
X153200790Y-51131688D01*
X153075693Y-51054528D01*
X153051470Y-51039587D01*
X153051465Y-51039585D01*
X152983184Y-51016959D01*
X152884931Y-50984401D01*
X152884929Y-50984400D01*
X152782144Y-50973900D01*
X151982132Y-50973900D01*
X151982114Y-50973901D01*
X151879337Y-50984400D01*
X151879334Y-50984401D01*
X151712802Y-51039585D01*
X151712797Y-51039587D01*
X151563476Y-51131689D01*
X151439423Y-51255742D01*
X151347321Y-51405063D01*
X151347320Y-51405066D01*
X151292135Y-51571603D01*
X151292135Y-51571604D01*
X151292134Y-51571604D01*
X151281634Y-51674383D01*
X145612428Y-51674383D01*
X145605141Y-51651955D01*
X145526500Y-51497612D01*
X145424682Y-51357472D01*
X145302196Y-51234986D01*
X145162056Y-51133168D01*
X145007713Y-51054527D01*
X144842969Y-51000998D01*
X144842967Y-51000997D01*
X144842966Y-51000997D01*
X144711539Y-50980181D01*
X144671879Y-50973900D01*
X144498657Y-50973900D01*
X144458996Y-50980181D01*
X144327570Y-51000997D01*
X144162820Y-51054528D01*
X144008479Y-51133168D01*
X143868341Y-51234985D01*
X143760798Y-51342528D01*
X143699475Y-51376012D01*
X143629783Y-51371028D01*
X143573850Y-51329156D01*
X143567578Y-51319943D01*
X143527980Y-51255744D01*
X143403924Y-51131688D01*
X143278827Y-51054528D01*
X143254604Y-51039587D01*
X143254599Y-51039585D01*
X143186318Y-51016959D01*
X143088065Y-50984401D01*
X143088063Y-50984400D01*
X142985278Y-50973900D01*
X142185266Y-50973900D01*
X142185248Y-50973901D01*
X142082471Y-50984400D01*
X142082468Y-50984401D01*
X141915936Y-51039585D01*
X141915931Y-51039587D01*
X141766610Y-51131689D01*
X141642557Y-51255742D01*
X141550455Y-51405063D01*
X141550454Y-51405066D01*
X141495269Y-51571603D01*
X141495269Y-51571604D01*
X141495268Y-51571604D01*
X141484768Y-51674383D01*
X139079348Y-51674383D01*
X139061796Y-51428972D01*
X139050275Y-51376012D01*
X139000971Y-51149362D01*
X139000970Y-51149360D01*
X139000969Y-51149354D01*
X138900967Y-50881239D01*
X138848364Y-50784905D01*
X138763829Y-50630090D01*
X138763824Y-50630082D01*
X138592345Y-50401012D01*
X138592329Y-50400994D01*
X138390005Y-50198670D01*
X138389987Y-50198654D01*
X138160917Y-50027175D01*
X138160909Y-50027170D01*
X137909766Y-49890035D01*
X137909762Y-49890033D01*
X137854445Y-49869401D01*
X137760439Y-49834338D01*
X137704507Y-49792469D01*
X137680090Y-49727004D01*
X137694942Y-49658731D01*
X137744347Y-49609326D01*
X137803944Y-49594158D01*
X178633215Y-49650396D01*
X178700225Y-49670173D01*
X178745907Y-49723040D01*
X178755755Y-49792212D01*
X178726643Y-49855728D01*
X178676376Y-49890577D01*
X178541645Y-49940830D01*
X178541633Y-49940835D01*
X178290490Y-50077970D01*
X178290482Y-50077975D01*
X178061412Y-50249454D01*
X178061394Y-50249470D01*
X177859070Y-50451794D01*
X177859054Y-50451812D01*
X177687575Y-50680882D01*
X177687570Y-50680890D01*
X177550435Y-50932033D01*
X177450428Y-51200162D01*
X177389604Y-51479766D01*
X177369190Y-51765198D01*
X177369190Y-51765201D01*
X177389604Y-52050633D01*
X177450428Y-52330237D01*
X177450430Y-52330243D01*
X177450431Y-52330246D01*
X177549647Y-52596254D01*
X177550435Y-52598366D01*
X177687570Y-52849509D01*
X177687575Y-52849517D01*
X177859054Y-53078587D01*
X177859070Y-53078605D01*
X178061394Y-53280929D01*
X178061412Y-53280945D01*
X178290482Y-53452424D01*
X178290490Y-53452429D01*
X178541633Y-53589564D01*
X178541632Y-53589564D01*
X178541636Y-53589565D01*
X178541639Y-53589567D01*
X178809754Y-53689569D01*
X178809760Y-53689570D01*
X178809762Y-53689571D01*
X179089366Y-53750395D01*
X179089368Y-53750395D01*
X179089372Y-53750396D01*
X179343020Y-53768537D01*
X179374799Y-53770810D01*
X179374800Y-53770810D01*
X179374801Y-53770810D01*
X179403395Y-53768764D01*
X179660228Y-53750396D01*
X179893753Y-53699596D01*
X179939837Y-53689571D01*
X179939837Y-53689570D01*
X179939846Y-53689569D01*
X180207961Y-53589567D01*
X180459115Y-53452426D01*
X180688195Y-53280939D01*
X180890539Y-53078595D01*
X181062026Y-52849515D01*
X181199167Y-52598361D01*
X181247470Y-52468855D01*
X181289338Y-52412926D01*
X181354802Y-52388509D01*
X181423075Y-52403360D01*
X181472481Y-52452765D01*
X181487649Y-52512156D01*
X181503198Y-104030705D01*
X181502726Y-104041554D01*
X181488954Y-104198903D01*
X181485200Y-104220188D01*
X181445718Y-104367521D01*
X181438326Y-104387830D01*
X181373860Y-104526074D01*
X181363053Y-104544792D01*
X181275561Y-104669743D01*
X181261668Y-104686299D01*
X181153815Y-104794155D01*
X181137258Y-104808049D01*
X181012310Y-104895542D01*
X180993594Y-104906348D01*
X180855353Y-104970817D01*
X180835043Y-104978210D01*
X180687714Y-105017694D01*
X180666430Y-105021448D01*
X180509447Y-105035192D01*
X180498639Y-105035665D01*
X180430099Y-105035668D01*
X180429911Y-105035680D01*
X173086460Y-105037317D01*
X173086385Y-105037313D01*
X173079249Y-105037315D01*
X173008478Y-105037335D01*
X173008471Y-105037335D01*
X172947481Y-105037348D01*
X172886314Y-105053756D01*
X172886309Y-105053757D01*
X172820199Y-105071487D01*
X172795755Y-105085608D01*
X172772266Y-105099179D01*
X172713524Y-105133111D01*
X172706084Y-105137410D01*
X172663710Y-105179807D01*
X172663638Y-105179880D01*
X172638373Y-105205156D01*
X172612917Y-105230624D01*
X172577560Y-105291906D01*
X172577558Y-105291911D01*
X172547054Y-105344772D01*
X172529301Y-105411109D01*
X172529299Y-105411117D01*
X172512985Y-105472056D01*
X172512982Y-105472079D01*
X172513001Y-105538486D01*
X172513001Y-105538492D01*
X172513017Y-105610345D01*
X172513020Y-105610400D01*
X172518540Y-124774607D01*
X172498875Y-124841652D01*
X172446084Y-124887423D01*
X172376928Y-124897386D01*
X172349747Y-124890270D01*
X172287615Y-124866200D01*
X172069001Y-124825335D01*
X171846615Y-124825335D01*
X171628003Y-124866200D01*
X171420632Y-124946535D01*
X171420626Y-124946539D01*
X171304480Y-125018452D01*
X171304479Y-125018453D01*
X171911361Y-125625335D01*
X171905147Y-125625335D01*
X171803414Y-125652594D01*
X171712202Y-125705255D01*
X171637728Y-125779729D01*
X171585067Y-125870941D01*
X171557808Y-125972674D01*
X171557808Y-125978888D01*
X170948946Y-125370026D01*
X170948945Y-125370026D01*
X170933177Y-125390906D01*
X170834047Y-125589986D01*
X170834045Y-125589990D01*
X170807333Y-125683875D01*
X170770054Y-125742968D01*
X170706744Y-125772525D01*
X170637505Y-125763163D01*
X170584318Y-125717853D01*
X170568802Y-125683876D01*
X170542037Y-125589807D01*
X170542032Y-125589796D01*
X170442869Y-125390651D01*
X170442864Y-125390643D01*
X170308787Y-125213096D01*
X170144370Y-125063211D01*
X170144368Y-125063209D01*
X169955212Y-124946089D01*
X169955206Y-124946087D01*
X169747748Y-124865717D01*
X169529051Y-124824835D01*
X169306565Y-124824835D01*
X169087868Y-124865717D01*
X169024490Y-124890270D01*
X168880409Y-124946087D01*
X168880403Y-124946089D01*
X168691247Y-125063209D01*
X168691245Y-125063211D01*
X168526828Y-125213096D01*
X168392751Y-125390643D01*
X168392746Y-125390651D01*
X168293583Y-125589796D01*
X168293577Y-125589811D01*
X168232693Y-125803797D01*
X168232692Y-125803799D01*
X168212165Y-126025334D01*
X168212165Y-126025335D01*
X168232692Y-126246870D01*
X168232693Y-126246872D01*
X168293577Y-126460858D01*
X168293583Y-126460873D01*
X168392746Y-126660018D01*
X168392751Y-126660026D01*
X168526828Y-126837573D01*
X168691245Y-126987458D01*
X168691247Y-126987460D01*
X168880403Y-127104580D01*
X168880404Y-127104580D01*
X168880407Y-127104582D01*
X169074332Y-127179709D01*
X169129732Y-127222281D01*
X169153323Y-127288048D01*
X169137612Y-127356128D01*
X169087588Y-127404907D01*
X169074341Y-127410957D01*
X168926296Y-127468310D01*
X168880409Y-127486087D01*
X168880403Y-127486089D01*
X168691247Y-127603209D01*
X168691245Y-127603211D01*
X168526828Y-127753096D01*
X168392751Y-127930643D01*
X168392746Y-127930651D01*
X168293583Y-128129796D01*
X168293577Y-128129811D01*
X168232693Y-128343797D01*
X168232692Y-128343799D01*
X168212165Y-128565334D01*
X168212165Y-128565335D01*
X168232692Y-128786870D01*
X168232693Y-128786872D01*
X168293577Y-129000858D01*
X168293583Y-129000873D01*
X168392746Y-129200018D01*
X168392751Y-129200026D01*
X168526828Y-129377573D01*
X168691245Y-129527458D01*
X168691247Y-129527460D01*
X168880403Y-129644580D01*
X168880404Y-129644580D01*
X168880407Y-129644582D01*
X169074332Y-129719709D01*
X169129732Y-129762281D01*
X169153323Y-129828048D01*
X169137612Y-129896128D01*
X169087588Y-129944907D01*
X169074341Y-129950957D01*
X168926296Y-130008310D01*
X168880409Y-130026087D01*
X168880403Y-130026089D01*
X168691247Y-130143209D01*
X168691245Y-130143211D01*
X168526829Y-130293095D01*
X168517414Y-130305564D01*
X168461304Y-130347199D01*
X168418461Y-130354835D01*
X166189365Y-130354835D01*
X166122326Y-130335150D01*
X166101684Y-130318516D01*
X165718484Y-129935316D01*
X165684999Y-129873993D01*
X165682165Y-129847635D01*
X165682165Y-101426199D01*
X168265164Y-101426199D01*
X168265164Y-101426200D01*
X169162788Y-101426200D01*
X169129875Y-101483207D01*
X169095800Y-101610374D01*
X169095800Y-101742026D01*
X169129875Y-101869193D01*
X169162788Y-101926200D01*
X168265164Y-101926200D01*
X168322367Y-102139686D01*
X168322370Y-102139692D01*
X168422199Y-102353778D01*
X168557694Y-102547282D01*
X168724717Y-102714305D01*
X168918221Y-102849800D01*
X169132307Y-102949629D01*
X169132316Y-102949633D01*
X169345800Y-103006834D01*
X169345800Y-102109212D01*
X169402807Y-102142125D01*
X169529974Y-102176200D01*
X169661626Y-102176200D01*
X169788793Y-102142125D01*
X169845800Y-102109212D01*
X169845800Y-103006833D01*
X170059283Y-102949633D01*
X170059292Y-102949629D01*
X170273378Y-102849800D01*
X170466882Y-102714305D01*
X170633905Y-102547282D01*
X170763919Y-102361605D01*
X170818496Y-102317981D01*
X170887995Y-102310788D01*
X170950349Y-102342310D01*
X170967069Y-102361605D01*
X171097305Y-102547601D01*
X171264399Y-102714695D01*
X171350005Y-102774637D01*
X171457965Y-102850232D01*
X171457967Y-102850233D01*
X171457970Y-102850235D01*
X171672137Y-102950103D01*
X171900392Y-103011263D01*
X172076834Y-103026700D01*
X172135799Y-103031859D01*
X172135800Y-103031859D01*
X172135801Y-103031859D01*
X172194766Y-103026700D01*
X172371208Y-103011263D01*
X172599463Y-102950103D01*
X172813630Y-102850235D01*
X173007201Y-102714695D01*
X173129129Y-102592766D01*
X173190448Y-102559284D01*
X173260140Y-102564268D01*
X173316074Y-102606139D01*
X173332989Y-102637117D01*
X173382002Y-102768528D01*
X173382006Y-102768535D01*
X173468252Y-102883744D01*
X173468255Y-102883747D01*
X173583464Y-102969993D01*
X173583471Y-102969997D01*
X173718317Y-103020291D01*
X173718316Y-103020291D01*
X173725244Y-103021035D01*
X173777927Y-103026700D01*
X175573672Y-103026699D01*
X175633283Y-103020291D01*
X175768131Y-102969996D01*
X175883346Y-102883746D01*
X175969596Y-102768531D01*
X176019891Y-102633683D01*
X176026300Y-102574073D01*
X176026300Y-102308128D01*
X177039990Y-102308128D01*
X177039990Y-102308131D01*
X177060404Y-102593563D01*
X177121228Y-102873167D01*
X177121230Y-102873173D01*
X177121231Y-102873176D01*
X177178493Y-103026700D01*
X177221235Y-103141296D01*
X177358370Y-103392439D01*
X177358375Y-103392447D01*
X177529854Y-103621517D01*
X177529870Y-103621535D01*
X177732194Y-103823859D01*
X177732212Y-103823875D01*
X177961282Y-103995354D01*
X177961290Y-103995359D01*
X178212433Y-104132494D01*
X178212432Y-104132494D01*
X178212436Y-104132495D01*
X178212439Y-104132497D01*
X178480554Y-104232499D01*
X178480560Y-104232500D01*
X178480562Y-104232501D01*
X178760166Y-104293325D01*
X178760168Y-104293325D01*
X178760172Y-104293326D01*
X179013820Y-104311467D01*
X179045599Y-104313740D01*
X179045600Y-104313740D01*
X179045601Y-104313740D01*
X179074195Y-104311694D01*
X179331028Y-104293326D01*
X179535266Y-104248897D01*
X179610637Y-104232501D01*
X179610637Y-104232500D01*
X179610646Y-104232499D01*
X179878761Y-104132497D01*
X180129915Y-103995356D01*
X180358995Y-103823869D01*
X180561339Y-103621525D01*
X180732826Y-103392445D01*
X180869967Y-103141291D01*
X180969969Y-102873176D01*
X180972091Y-102863422D01*
X181030795Y-102593563D01*
X181030795Y-102593562D01*
X181030796Y-102593558D01*
X181051210Y-102308130D01*
X181030796Y-102022702D01*
X181028618Y-102012692D01*
X180969971Y-101743092D01*
X180969970Y-101743090D01*
X180969969Y-101743084D01*
X180869967Y-101474969D01*
X180843336Y-101426199D01*
X180732829Y-101223820D01*
X180732824Y-101223812D01*
X180561345Y-100994742D01*
X180561329Y-100994724D01*
X180359005Y-100792400D01*
X180358987Y-100792384D01*
X180129917Y-100620905D01*
X180129909Y-100620900D01*
X179878766Y-100483765D01*
X179878767Y-100483765D01*
X179771515Y-100443762D01*
X179610646Y-100383761D01*
X179610643Y-100383760D01*
X179610637Y-100383758D01*
X179331033Y-100322934D01*
X179045601Y-100302520D01*
X179045599Y-100302520D01*
X178760166Y-100322934D01*
X178480562Y-100383758D01*
X178212433Y-100483765D01*
X177961290Y-100620900D01*
X177961282Y-100620905D01*
X177732212Y-100792384D01*
X177732194Y-100792400D01*
X177529870Y-100994724D01*
X177529854Y-100994742D01*
X177358375Y-101223812D01*
X177358370Y-101223820D01*
X177221235Y-101474963D01*
X177121228Y-101743092D01*
X177060404Y-102022696D01*
X177039990Y-102308128D01*
X176026300Y-102308128D01*
X176026299Y-100778328D01*
X176019891Y-100718717D01*
X176018610Y-100715283D01*
X175969597Y-100583871D01*
X175969593Y-100583864D01*
X175883347Y-100468655D01*
X175883344Y-100468652D01*
X175768135Y-100382406D01*
X175768128Y-100382402D01*
X175633282Y-100332108D01*
X175633283Y-100332108D01*
X175573683Y-100325701D01*
X175573681Y-100325700D01*
X175573673Y-100325700D01*
X175573664Y-100325700D01*
X173777929Y-100325700D01*
X173777923Y-100325701D01*
X173718316Y-100332108D01*
X173583471Y-100382402D01*
X173583464Y-100382406D01*
X173468255Y-100468652D01*
X173468252Y-100468655D01*
X173382006Y-100583864D01*
X173382003Y-100583869D01*
X173332989Y-100715283D01*
X173291117Y-100771216D01*
X173225653Y-100795633D01*
X173157380Y-100780781D01*
X173129126Y-100759630D01*
X173007202Y-100637706D01*
X173007195Y-100637701D01*
X172813634Y-100502167D01*
X172813630Y-100502165D01*
X172774167Y-100483763D01*
X172599463Y-100402297D01*
X172599459Y-100402296D01*
X172599455Y-100402294D01*
X172371213Y-100341138D01*
X172371203Y-100341136D01*
X172135801Y-100320541D01*
X172135799Y-100320541D01*
X171900396Y-100341136D01*
X171900386Y-100341138D01*
X171672144Y-100402294D01*
X171672135Y-100402298D01*
X171457971Y-100502164D01*
X171457969Y-100502165D01*
X171264397Y-100637705D01*
X171097308Y-100804794D01*
X170967069Y-100990795D01*
X170912492Y-101034419D01*
X170842993Y-101041612D01*
X170780639Y-101010090D01*
X170763919Y-100990794D01*
X170633913Y-100805126D01*
X170633908Y-100805120D01*
X170466882Y-100638094D01*
X170273378Y-100502599D01*
X170059292Y-100402770D01*
X170059286Y-100402767D01*
X169845800Y-100345564D01*
X169845800Y-101243188D01*
X169788793Y-101210275D01*
X169661626Y-101176200D01*
X169529974Y-101176200D01*
X169402807Y-101210275D01*
X169345800Y-101243188D01*
X169345800Y-100345564D01*
X169345799Y-100345564D01*
X169132313Y-100402767D01*
X169132307Y-100402770D01*
X168918222Y-100502599D01*
X168918220Y-100502600D01*
X168724726Y-100638086D01*
X168724720Y-100638091D01*
X168557691Y-100805120D01*
X168557686Y-100805126D01*
X168422200Y-100998620D01*
X168422199Y-100998622D01*
X168322370Y-101212707D01*
X168322367Y-101212713D01*
X168265164Y-101426199D01*
X165682165Y-101426199D01*
X165682165Y-96676399D01*
X168235164Y-96676399D01*
X168235164Y-96676400D01*
X169132788Y-96676400D01*
X169099875Y-96733407D01*
X169065800Y-96860574D01*
X169065800Y-96992226D01*
X169099875Y-97119393D01*
X169132788Y-97176400D01*
X168235164Y-97176400D01*
X168292367Y-97389886D01*
X168292370Y-97389892D01*
X168392199Y-97603978D01*
X168527694Y-97797482D01*
X168694717Y-97964505D01*
X168888221Y-98100000D01*
X169102307Y-98199829D01*
X169102316Y-98199833D01*
X169315800Y-98257034D01*
X169315800Y-97359412D01*
X169372807Y-97392325D01*
X169499974Y-97426400D01*
X169631626Y-97426400D01*
X169758793Y-97392325D01*
X169815800Y-97359412D01*
X169815800Y-98257033D01*
X170029283Y-98199833D01*
X170029292Y-98199829D01*
X170243378Y-98100000D01*
X170436882Y-97964505D01*
X170603905Y-97797482D01*
X170733919Y-97611805D01*
X170788496Y-97568181D01*
X170857995Y-97560988D01*
X170920349Y-97592510D01*
X170937069Y-97611805D01*
X171067305Y-97797801D01*
X171234399Y-97964895D01*
X171329092Y-98031200D01*
X171427965Y-98100432D01*
X171427967Y-98100433D01*
X171427970Y-98100435D01*
X171642137Y-98200303D01*
X171870392Y-98261463D01*
X172046834Y-98276900D01*
X172105799Y-98282059D01*
X172105800Y-98282059D01*
X172105801Y-98282059D01*
X172164766Y-98276900D01*
X172341208Y-98261463D01*
X172569463Y-98200303D01*
X172783630Y-98100435D01*
X172977201Y-97964895D01*
X173099129Y-97842966D01*
X173160448Y-97809484D01*
X173230140Y-97814468D01*
X173286074Y-97856339D01*
X173302989Y-97887317D01*
X173352002Y-98018728D01*
X173352006Y-98018735D01*
X173438252Y-98133944D01*
X173438255Y-98133947D01*
X173553464Y-98220193D01*
X173553471Y-98220197D01*
X173688317Y-98270491D01*
X173688316Y-98270491D01*
X173695244Y-98271235D01*
X173747927Y-98276900D01*
X175543672Y-98276899D01*
X175603283Y-98270491D01*
X175738131Y-98220196D01*
X175853346Y-98133946D01*
X175939596Y-98018731D01*
X175989891Y-97883883D01*
X175996300Y-97824273D01*
X175996299Y-96028528D01*
X175989891Y-95968917D01*
X175988610Y-95965483D01*
X175939597Y-95834071D01*
X175939593Y-95834064D01*
X175853347Y-95718855D01*
X175853344Y-95718852D01*
X175738135Y-95632606D01*
X175738128Y-95632602D01*
X175603282Y-95582308D01*
X175603283Y-95582308D01*
X175543683Y-95575901D01*
X175543681Y-95575900D01*
X175543673Y-95575900D01*
X175543664Y-95575900D01*
X173747929Y-95575900D01*
X173747923Y-95575901D01*
X173688316Y-95582308D01*
X173553471Y-95632602D01*
X173553464Y-95632606D01*
X173438255Y-95718852D01*
X173438252Y-95718855D01*
X173352006Y-95834064D01*
X173352003Y-95834069D01*
X173302989Y-95965483D01*
X173261117Y-96021416D01*
X173195653Y-96045833D01*
X173127380Y-96030981D01*
X173099126Y-96009830D01*
X172977202Y-95887906D01*
X172977195Y-95887901D01*
X172783634Y-95752367D01*
X172783630Y-95752365D01*
X172783628Y-95752364D01*
X172569463Y-95652497D01*
X172569459Y-95652496D01*
X172569455Y-95652494D01*
X172341213Y-95591338D01*
X172341203Y-95591336D01*
X172105801Y-95570741D01*
X172105799Y-95570741D01*
X171870396Y-95591336D01*
X171870386Y-95591338D01*
X171642144Y-95652494D01*
X171642135Y-95652498D01*
X171427971Y-95752364D01*
X171427969Y-95752365D01*
X171234397Y-95887905D01*
X171067308Y-96054994D01*
X170937069Y-96240995D01*
X170882492Y-96284619D01*
X170812993Y-96291812D01*
X170750639Y-96260290D01*
X170733919Y-96240994D01*
X170603913Y-96055326D01*
X170603908Y-96055320D01*
X170436882Y-95888294D01*
X170243378Y-95752799D01*
X170029292Y-95652970D01*
X170029286Y-95652967D01*
X169815800Y-95595764D01*
X169815800Y-96493388D01*
X169758793Y-96460475D01*
X169631626Y-96426400D01*
X169499974Y-96426400D01*
X169372807Y-96460475D01*
X169315800Y-96493388D01*
X169315800Y-95595764D01*
X169315799Y-95595764D01*
X169102313Y-95652967D01*
X169102307Y-95652970D01*
X168888222Y-95752799D01*
X168888220Y-95752800D01*
X168694726Y-95888286D01*
X168694720Y-95888291D01*
X168527691Y-96055320D01*
X168527686Y-96055326D01*
X168392200Y-96248820D01*
X168392199Y-96248822D01*
X168292370Y-96462907D01*
X168292367Y-96462913D01*
X168235164Y-96676399D01*
X165682165Y-96676399D01*
X165682165Y-91926599D01*
X168235164Y-91926599D01*
X168235164Y-91926600D01*
X169132788Y-91926600D01*
X169099875Y-91983607D01*
X169065800Y-92110774D01*
X169065800Y-92242426D01*
X169099875Y-92369593D01*
X169132788Y-92426600D01*
X168235164Y-92426600D01*
X168292367Y-92640086D01*
X168292370Y-92640092D01*
X168392199Y-92854178D01*
X168527694Y-93047682D01*
X168694717Y-93214705D01*
X168888221Y-93350200D01*
X169102307Y-93450029D01*
X169102316Y-93450033D01*
X169315800Y-93507234D01*
X169315800Y-92609612D01*
X169372807Y-92642525D01*
X169499974Y-92676600D01*
X169631626Y-92676600D01*
X169758793Y-92642525D01*
X169815800Y-92609612D01*
X169815800Y-93507233D01*
X170029283Y-93450033D01*
X170029292Y-93450029D01*
X170243378Y-93350200D01*
X170436882Y-93214705D01*
X170603905Y-93047682D01*
X170733919Y-92862005D01*
X170788496Y-92818381D01*
X170857995Y-92811188D01*
X170920349Y-92842710D01*
X170937069Y-92862005D01*
X171067305Y-93048001D01*
X171234399Y-93215095D01*
X171316669Y-93272701D01*
X171427965Y-93350632D01*
X171427967Y-93350633D01*
X171427970Y-93350635D01*
X171642137Y-93450503D01*
X171870392Y-93511663D01*
X172046834Y-93527100D01*
X172105799Y-93532259D01*
X172105800Y-93532259D01*
X172105801Y-93532259D01*
X172164766Y-93527100D01*
X172341208Y-93511663D01*
X172569463Y-93450503D01*
X172783630Y-93350635D01*
X172977201Y-93215095D01*
X173099129Y-93093166D01*
X173160448Y-93059684D01*
X173230140Y-93064668D01*
X173286074Y-93106539D01*
X173302989Y-93137517D01*
X173352002Y-93268928D01*
X173352006Y-93268935D01*
X173438252Y-93384144D01*
X173438255Y-93384147D01*
X173553464Y-93470393D01*
X173553471Y-93470397D01*
X173688317Y-93520691D01*
X173688316Y-93520691D01*
X173695244Y-93521435D01*
X173747927Y-93527100D01*
X175543672Y-93527099D01*
X175603283Y-93520691D01*
X175738131Y-93470396D01*
X175853346Y-93384146D01*
X175939596Y-93268931D01*
X175989891Y-93134083D01*
X175996300Y-93074473D01*
X175996299Y-91278728D01*
X175989891Y-91219117D01*
X175988610Y-91215683D01*
X175939597Y-91084271D01*
X175939593Y-91084264D01*
X175853347Y-90969055D01*
X175853344Y-90969052D01*
X175738135Y-90882806D01*
X175738128Y-90882802D01*
X175603282Y-90832508D01*
X175603283Y-90832508D01*
X175543683Y-90826101D01*
X175543681Y-90826100D01*
X175543673Y-90826100D01*
X175543664Y-90826100D01*
X173747929Y-90826100D01*
X173747923Y-90826101D01*
X173688316Y-90832508D01*
X173553471Y-90882802D01*
X173553464Y-90882806D01*
X173438255Y-90969052D01*
X173438252Y-90969055D01*
X173352006Y-91084264D01*
X173352003Y-91084269D01*
X173302989Y-91215683D01*
X173261117Y-91271616D01*
X173195653Y-91296033D01*
X173127380Y-91281181D01*
X173099126Y-91260030D01*
X172977202Y-91138106D01*
X172977195Y-91138101D01*
X172962372Y-91127722D01*
X172900318Y-91084271D01*
X172783634Y-91002567D01*
X172783630Y-91002565D01*
X172772822Y-90997525D01*
X172569463Y-90902697D01*
X172569459Y-90902696D01*
X172569455Y-90902694D01*
X172341213Y-90841538D01*
X172341203Y-90841536D01*
X172105801Y-90820941D01*
X172105799Y-90820941D01*
X171870396Y-90841536D01*
X171870386Y-90841538D01*
X171642144Y-90902694D01*
X171642135Y-90902698D01*
X171427971Y-91002564D01*
X171427969Y-91002565D01*
X171234397Y-91138105D01*
X171067308Y-91305194D01*
X170937069Y-91491195D01*
X170882492Y-91534819D01*
X170812993Y-91542012D01*
X170750639Y-91510490D01*
X170733919Y-91491194D01*
X170603913Y-91305526D01*
X170603908Y-91305520D01*
X170436882Y-91138494D01*
X170243378Y-91002999D01*
X170029292Y-90903170D01*
X170029286Y-90903167D01*
X169815800Y-90845964D01*
X169815800Y-91743588D01*
X169758793Y-91710675D01*
X169631626Y-91676600D01*
X169499974Y-91676600D01*
X169372807Y-91710675D01*
X169315800Y-91743588D01*
X169315800Y-90845964D01*
X169315799Y-90845964D01*
X169102313Y-90903167D01*
X169102307Y-90903170D01*
X168888222Y-91002999D01*
X168888220Y-91003000D01*
X168694726Y-91138486D01*
X168694720Y-91138491D01*
X168527691Y-91305520D01*
X168527686Y-91305526D01*
X168392200Y-91499020D01*
X168392199Y-91499022D01*
X168292370Y-91713107D01*
X168292367Y-91713113D01*
X168235164Y-91926599D01*
X165682165Y-91926599D01*
X165682165Y-91414764D01*
X165701850Y-91347725D01*
X165718484Y-91327083D01*
X168362048Y-88683519D01*
X168423371Y-88650034D01*
X168449729Y-88647200D01*
X170419020Y-88647200D01*
X170516562Y-88627796D01*
X170564013Y-88618358D01*
X170700595Y-88561784D01*
X170775788Y-88511542D01*
X170823516Y-88479652D01*
X171778951Y-87524216D01*
X171861084Y-87401295D01*
X171917658Y-87264713D01*
X171927096Y-87217262D01*
X171946500Y-87119720D01*
X171946500Y-80112899D01*
X171966185Y-80045860D01*
X172018989Y-80000105D01*
X172070500Y-79988899D01*
X172093871Y-79988899D01*
X172093872Y-79988899D01*
X172153483Y-79982491D01*
X172288331Y-79932196D01*
X172403546Y-79845946D01*
X172489796Y-79730731D01*
X172538810Y-79599316D01*
X172580681Y-79543384D01*
X172646145Y-79518966D01*
X172714418Y-79533817D01*
X172742673Y-79554969D01*
X172864599Y-79676895D01*
X172961384Y-79744665D01*
X173058165Y-79812432D01*
X173058167Y-79812433D01*
X173058170Y-79812435D01*
X173272337Y-79912303D01*
X173272343Y-79912304D01*
X173272344Y-79912305D01*
X173278797Y-79914034D01*
X173500592Y-79973463D01*
X173677034Y-79988900D01*
X173735999Y-79994059D01*
X173736000Y-79994059D01*
X173736001Y-79994059D01*
X173794966Y-79988900D01*
X173971408Y-79973463D01*
X174199663Y-79912303D01*
X174413830Y-79812435D01*
X174607401Y-79676895D01*
X174744647Y-79539648D01*
X174805966Y-79506166D01*
X174875658Y-79511150D01*
X174931592Y-79553021D01*
X174948436Y-79589048D01*
X174949598Y-79588615D01*
X175002602Y-79730728D01*
X175002606Y-79730735D01*
X175088852Y-79845944D01*
X175088855Y-79845947D01*
X175204064Y-79932193D01*
X175204071Y-79932197D01*
X175338917Y-79982491D01*
X175338916Y-79982491D01*
X175345844Y-79983235D01*
X175398527Y-79988900D01*
X177194272Y-79988899D01*
X177253883Y-79982491D01*
X177388731Y-79932196D01*
X177503946Y-79845946D01*
X177590196Y-79730731D01*
X177639210Y-79599316D01*
X177681081Y-79543384D01*
X177746545Y-79518966D01*
X177814818Y-79533817D01*
X177843073Y-79554969D01*
X177964999Y-79676895D01*
X178061784Y-79744665D01*
X178158565Y-79812432D01*
X178158567Y-79812433D01*
X178158570Y-79812435D01*
X178372737Y-79912303D01*
X178372743Y-79912304D01*
X178372744Y-79912305D01*
X178379197Y-79914034D01*
X178600992Y-79973463D01*
X178777434Y-79988900D01*
X178836399Y-79994059D01*
X178836400Y-79994059D01*
X178836401Y-79994059D01*
X178895366Y-79988900D01*
X179071808Y-79973463D01*
X179300063Y-79912303D01*
X179514230Y-79812435D01*
X179707801Y-79676895D01*
X179874895Y-79509801D01*
X180010435Y-79316230D01*
X180110303Y-79102063D01*
X180171463Y-78873808D01*
X180192059Y-78638400D01*
X180171463Y-78402992D01*
X180110303Y-78174737D01*
X180010435Y-77960571D01*
X179948298Y-77871829D01*
X179874894Y-77766997D01*
X179707804Y-77599907D01*
X179639775Y-77552272D01*
X179596151Y-77497694D01*
X179586900Y-77450698D01*
X179586900Y-73987479D01*
X179569810Y-73901566D01*
X179569810Y-73901565D01*
X179558059Y-73842488D01*
X179507109Y-73719486D01*
X179501484Y-73705905D01*
X179444846Y-73621140D01*
X179419352Y-73582984D01*
X179059468Y-73223100D01*
X178481621Y-72645252D01*
X178481614Y-72645246D01*
X178407929Y-72596012D01*
X178407929Y-72596013D01*
X178358691Y-72563113D01*
X178222117Y-72506543D01*
X178222107Y-72506540D01*
X178077120Y-72477700D01*
X178077118Y-72477700D01*
X168886882Y-72477700D01*
X168886880Y-72477700D01*
X168741892Y-72506540D01*
X168741886Y-72506542D01*
X168605308Y-72563114D01*
X168605296Y-72563121D01*
X168556069Y-72596013D01*
X168482388Y-72645244D01*
X168482380Y-72645250D01*
X166498249Y-74629381D01*
X166454994Y-74694117D01*
X166454995Y-74694118D01*
X166416114Y-74752308D01*
X166359543Y-74888882D01*
X166359540Y-74888892D01*
X166330700Y-75033879D01*
X166330700Y-81487161D01*
X166311015Y-81554200D01*
X166258211Y-81599955D01*
X166189053Y-81609899D01*
X166132389Y-81586428D01*
X166065088Y-81536046D01*
X166065086Y-81536045D01*
X165930379Y-81485803D01*
X165930372Y-81485801D01*
X165870844Y-81479400D01*
X165223000Y-81479400D01*
X165223000Y-82396388D01*
X165165993Y-82363475D01*
X165038826Y-82329400D01*
X164907174Y-82329400D01*
X164780007Y-82363475D01*
X164723000Y-82396388D01*
X164723000Y-81479400D01*
X164075155Y-81479400D01*
X164015627Y-81485801D01*
X164015620Y-81485803D01*
X163880913Y-81536045D01*
X163880906Y-81536049D01*
X163765812Y-81622209D01*
X163765809Y-81622212D01*
X163679649Y-81737306D01*
X163679643Y-81737317D01*
X163673681Y-81753303D01*
X163631810Y-81809237D01*
X163566345Y-81833653D01*
X163498072Y-81818801D01*
X163448667Y-81769395D01*
X163433500Y-81709969D01*
X163433500Y-72939456D01*
X163395052Y-72746168D01*
X163395051Y-72746165D01*
X163394759Y-72745461D01*
X163361454Y-72665054D01*
X163339194Y-72611313D01*
X163319635Y-72564092D01*
X163319628Y-72564079D01*
X163210140Y-72400219D01*
X163210139Y-72400218D01*
X163070782Y-72260861D01*
X163070781Y-72260860D01*
X162401808Y-71591888D01*
X162401806Y-71591885D01*
X162401806Y-71591886D01*
X162394739Y-71584819D01*
X162394739Y-71584818D01*
X162255382Y-71445461D01*
X162255381Y-71445460D01*
X162255380Y-71445459D01*
X162091520Y-71335971D01*
X162091507Y-71335964D01*
X161953507Y-71278804D01*
X161909436Y-71260549D01*
X161909428Y-71260547D01*
X161812788Y-71241324D01*
X161716144Y-71222100D01*
X161716141Y-71222100D01*
X159966141Y-71222100D01*
X156257541Y-71222100D01*
X140911859Y-71222100D01*
X140911855Y-71222100D01*
X140815212Y-71241324D01*
X140718571Y-71260547D01*
X140718563Y-71260549D01*
X140674493Y-71278804D01*
X140674492Y-71278804D01*
X140536492Y-71335964D01*
X140536479Y-71335971D01*
X140372619Y-71445459D01*
X140302940Y-71515138D01*
X140233261Y-71584818D01*
X140233258Y-71584821D01*
X137568621Y-74249458D01*
X137568618Y-74249461D01*
X137498938Y-74319140D01*
X137429259Y-74388819D01*
X137319771Y-74552679D01*
X137319764Y-74552692D01*
X137281799Y-74644351D01*
X137281799Y-74644352D01*
X137261186Y-74694117D01*
X137244349Y-74734764D01*
X137238116Y-74766100D01*
X137238116Y-74766101D01*
X137205900Y-74928056D01*
X137205900Y-81868641D01*
X137186215Y-81935680D01*
X137169581Y-81956322D01*
X137167905Y-81957997D01*
X137032365Y-82151569D01*
X137032364Y-82151571D01*
X136932498Y-82365735D01*
X136932494Y-82365744D01*
X136871338Y-82593986D01*
X136871336Y-82593996D01*
X136850741Y-82829399D01*
X136850741Y-82829400D01*
X136871336Y-83064803D01*
X136871338Y-83064813D01*
X136932494Y-83293055D01*
X136932496Y-83293059D01*
X136932497Y-83293063D01*
X137032365Y-83507230D01*
X137032367Y-83507234D01*
X137132643Y-83650442D01*
X137167905Y-83700801D01*
X137334999Y-83867895D01*
X137411535Y-83921486D01*
X137528565Y-84003432D01*
X137528567Y-84003433D01*
X137528570Y-84003435D01*
X137742737Y-84103303D01*
X137970992Y-84164463D01*
X138141719Y-84179400D01*
X138206399Y-84185059D01*
X138206400Y-84185059D01*
X138206401Y-84185059D01*
X138271081Y-84179400D01*
X138441808Y-84164463D01*
X138670063Y-84103303D01*
X138884230Y-84003435D01*
X139077801Y-83867895D01*
X139200117Y-83745578D01*
X139261436Y-83712096D01*
X139331128Y-83717080D01*
X139387062Y-83758951D01*
X139403977Y-83789928D01*
X139453046Y-83921488D01*
X139453049Y-83921493D01*
X139539209Y-84036587D01*
X139539212Y-84036590D01*
X139654306Y-84122750D01*
X139654313Y-84122754D01*
X139789020Y-84172996D01*
X139789027Y-84172998D01*
X139848555Y-84179399D01*
X139848572Y-84179400D01*
X140496400Y-84179400D01*
X140496400Y-83262412D01*
X140553407Y-83295325D01*
X140680574Y-83329400D01*
X140812226Y-83329400D01*
X140939393Y-83295325D01*
X140996400Y-83262412D01*
X140996400Y-84179400D01*
X141644228Y-84179400D01*
X141644244Y-84179399D01*
X141703772Y-84172998D01*
X141703779Y-84172996D01*
X141838486Y-84122754D01*
X141838493Y-84122750D01*
X141953587Y-84036590D01*
X141953590Y-84036587D01*
X142039750Y-83921493D01*
X142039754Y-83921486D01*
X142089996Y-83786779D01*
X142089998Y-83786772D01*
X142096399Y-83727244D01*
X142096400Y-83727227D01*
X142096400Y-83079400D01*
X141179412Y-83079400D01*
X141212325Y-83022393D01*
X141246400Y-82895226D01*
X141246400Y-82763574D01*
X141212325Y-82636407D01*
X141179412Y-82579400D01*
X142096400Y-82579400D01*
X142096400Y-81931572D01*
X142096399Y-81931555D01*
X142089998Y-81872027D01*
X142089996Y-81872020D01*
X142039754Y-81737313D01*
X142039750Y-81737306D01*
X141953590Y-81622212D01*
X141953587Y-81622209D01*
X141838493Y-81536049D01*
X141838486Y-81536045D01*
X141703779Y-81485803D01*
X141703772Y-81485801D01*
X141644244Y-81479400D01*
X140996400Y-81479400D01*
X140996400Y-82396388D01*
X140939393Y-82363475D01*
X140812226Y-82329400D01*
X140680574Y-82329400D01*
X140553407Y-82363475D01*
X140496400Y-82396388D01*
X140496400Y-81479400D01*
X139848555Y-81479400D01*
X139789027Y-81485801D01*
X139789020Y-81485803D01*
X139654313Y-81536045D01*
X139654306Y-81536049D01*
X139539212Y-81622209D01*
X139539209Y-81622212D01*
X139453049Y-81737306D01*
X139453043Y-81737317D01*
X139447081Y-81753303D01*
X139405210Y-81809237D01*
X139339745Y-81833653D01*
X139271472Y-81818801D01*
X139222067Y-81769395D01*
X139206900Y-81709969D01*
X139206900Y-75492382D01*
X139226585Y-75425343D01*
X139243219Y-75404701D01*
X141388501Y-73259419D01*
X141449824Y-73225934D01*
X141476182Y-73223100D01*
X154784500Y-73223100D01*
X154851539Y-73242785D01*
X154897294Y-73295589D01*
X154908500Y-73347100D01*
X154908501Y-73722300D01*
X154888817Y-73789339D01*
X154836013Y-73835094D01*
X154784501Y-73846300D01*
X148315880Y-73846300D01*
X148170892Y-73875140D01*
X148170886Y-73875142D01*
X148034308Y-73931714D01*
X148034296Y-73931721D01*
X147985069Y-73964613D01*
X147911388Y-74013844D01*
X147911380Y-74013850D01*
X146478047Y-75447184D01*
X146478045Y-75447186D01*
X146460739Y-75473089D01*
X146442415Y-75500514D01*
X146419085Y-75535429D01*
X146395914Y-75570107D01*
X146339343Y-75706682D01*
X146339340Y-75706692D01*
X146310500Y-75851679D01*
X146310500Y-77265500D01*
X146290815Y-77332539D01*
X146238011Y-77378294D01*
X146186505Y-77389500D01*
X146163132Y-77389500D01*
X146163123Y-77389501D01*
X146103516Y-77395908D01*
X145968671Y-77446202D01*
X145968664Y-77446206D01*
X145853455Y-77532452D01*
X145853452Y-77532455D01*
X145767206Y-77647664D01*
X145767202Y-77647671D01*
X145716908Y-77782517D01*
X145710501Y-77842116D01*
X145710500Y-77842135D01*
X145710500Y-79637870D01*
X145710501Y-79637876D01*
X145716908Y-79697483D01*
X145767202Y-79832328D01*
X145767206Y-79832335D01*
X145853452Y-79947544D01*
X145853455Y-79947547D01*
X145968664Y-80033793D01*
X145968671Y-80033797D01*
X146103517Y-80084091D01*
X146103516Y-80084091D01*
X146110444Y-80084835D01*
X146163127Y-80090500D01*
X147958872Y-80090499D01*
X148018483Y-80084091D01*
X148153331Y-80033796D01*
X148268546Y-79947546D01*
X148354796Y-79832331D01*
X148403810Y-79700916D01*
X148445681Y-79644984D01*
X148511145Y-79620566D01*
X148579418Y-79635417D01*
X148607673Y-79656569D01*
X148729599Y-79778495D01*
X148825926Y-79845944D01*
X148923165Y-79914032D01*
X148923167Y-79914033D01*
X148923170Y-79914035D01*
X149137337Y-80013903D01*
X149365592Y-80075063D01*
X149542034Y-80090500D01*
X149600999Y-80095659D01*
X149601000Y-80095659D01*
X149601001Y-80095659D01*
X149659966Y-80090500D01*
X149836408Y-80075063D01*
X150064663Y-80013903D01*
X150278830Y-79914035D01*
X150472401Y-79778495D01*
X150594329Y-79656566D01*
X150655648Y-79623084D01*
X150725340Y-79628068D01*
X150781274Y-79669939D01*
X150798189Y-79700917D01*
X150847202Y-79832328D01*
X150847206Y-79832335D01*
X150933452Y-79947544D01*
X150933455Y-79947547D01*
X151048664Y-80033793D01*
X151048671Y-80033797D01*
X151183517Y-80084091D01*
X151183516Y-80084091D01*
X151190444Y-80084835D01*
X151243127Y-80090500D01*
X153038872Y-80090499D01*
X153098483Y-80084091D01*
X153233331Y-80033796D01*
X153348546Y-79947546D01*
X153434796Y-79832331D01*
X153483810Y-79700916D01*
X153525681Y-79644984D01*
X153591145Y-79620566D01*
X153659418Y-79635417D01*
X153687670Y-79656566D01*
X153809599Y-79778495D01*
X153877623Y-79826125D01*
X153921248Y-79880701D01*
X153930500Y-79927700D01*
X153930500Y-84232970D01*
X153910815Y-84300009D01*
X153894181Y-84320651D01*
X153747446Y-84467386D01*
X151295142Y-86919689D01*
X151233819Y-86953174D01*
X151219615Y-86955411D01*
X151216678Y-86955700D01*
X151071692Y-86984540D01*
X151071682Y-86984543D01*
X150935111Y-87041112D01*
X150935098Y-87041119D01*
X150812184Y-87123248D01*
X150812180Y-87123251D01*
X150707651Y-87227780D01*
X150707648Y-87227784D01*
X150625519Y-87350698D01*
X150625512Y-87350711D01*
X150568943Y-87487282D01*
X150568940Y-87487292D01*
X150540100Y-87632279D01*
X150540100Y-125372182D01*
X150520415Y-125439221D01*
X150519203Y-125441072D01*
X150490318Y-125484301D01*
X150490314Y-125484308D01*
X150433742Y-125620886D01*
X150433740Y-125620892D01*
X150404900Y-125765879D01*
X150404900Y-130230835D01*
X150385215Y-130297874D01*
X150332411Y-130343629D01*
X150280900Y-130354835D01*
X147557155Y-130354835D01*
X147490116Y-130335150D01*
X147458202Y-130305564D01*
X147448786Y-130293095D01*
X147284370Y-130143211D01*
X147284368Y-130143209D01*
X147095212Y-130026089D01*
X147095203Y-130026085D01*
X147001764Y-129989887D01*
X146901283Y-129950960D01*
X146845883Y-129908389D01*
X146822292Y-129842623D01*
X146838003Y-129774542D01*
X146888027Y-129725763D01*
X146901274Y-129719712D01*
X147095209Y-129644582D01*
X147284370Y-129527459D01*
X147448789Y-129377571D01*
X147582866Y-129200024D01*
X147682037Y-129000863D01*
X147742923Y-128786871D01*
X147763451Y-128565335D01*
X147742923Y-128343799D01*
X147682037Y-128129807D01*
X147682032Y-128129796D01*
X147582869Y-127930651D01*
X147582864Y-127930643D01*
X147448787Y-127753096D01*
X147284370Y-127603211D01*
X147284368Y-127603209D01*
X147095212Y-127486089D01*
X147095203Y-127486085D01*
X147001764Y-127449887D01*
X146901283Y-127410960D01*
X146845883Y-127368389D01*
X146822292Y-127302623D01*
X146838003Y-127234542D01*
X146888027Y-127185763D01*
X146901274Y-127179712D01*
X147095209Y-127104582D01*
X147284370Y-126987459D01*
X147448789Y-126837571D01*
X147582866Y-126660024D01*
X147682037Y-126460863D01*
X147742923Y-126246871D01*
X147763451Y-126025335D01*
X147742923Y-125803799D01*
X147682037Y-125589807D01*
X147682032Y-125589796D01*
X147582869Y-125390651D01*
X147582864Y-125390643D01*
X147448787Y-125213096D01*
X147284370Y-125063211D01*
X147284368Y-125063209D01*
X147095212Y-124946089D01*
X147095206Y-124946087D01*
X146887748Y-124865717D01*
X146669051Y-124824835D01*
X146446565Y-124824835D01*
X146227868Y-124865717D01*
X146164490Y-124890270D01*
X146020409Y-124946087D01*
X146020403Y-124946089D01*
X145831247Y-125063209D01*
X145831245Y-125063211D01*
X145666828Y-125213096D01*
X145532751Y-125390643D01*
X145532746Y-125390651D01*
X145433583Y-125589796D01*
X145433578Y-125589809D01*
X145406814Y-125683875D01*
X145369534Y-125742968D01*
X145306225Y-125772525D01*
X145236985Y-125763163D01*
X145183799Y-125717853D01*
X145168281Y-125683873D01*
X145141568Y-125589985D01*
X145042441Y-125390912D01*
X145042439Y-125390909D01*
X145026668Y-125370026D01*
X144417808Y-125978887D01*
X144417808Y-125972674D01*
X144390549Y-125870941D01*
X144337888Y-125779729D01*
X144263414Y-125705255D01*
X144172202Y-125652594D01*
X144070469Y-125625335D01*
X144064254Y-125625335D01*
X144671135Y-125018453D01*
X144671134Y-125018452D01*
X144554989Y-124946538D01*
X144554983Y-124946535D01*
X144347612Y-124866200D01*
X144129001Y-124825335D01*
X143906615Y-124825335D01*
X143688001Y-124866200D01*
X143655822Y-124878666D01*
X143586199Y-124884526D01*
X143524459Y-124851815D01*
X143490206Y-124790918D01*
X143487033Y-124762672D01*
X143545534Y-105492915D01*
X143545761Y-105489548D01*
X143545761Y-105418386D01*
X143545762Y-105418009D01*
X143545959Y-105353154D01*
X143545891Y-105352636D01*
X143545839Y-105352234D01*
X143545766Y-105351668D01*
X143545761Y-105351649D01*
X143545761Y-105351647D01*
X143528895Y-105288704D01*
X143512237Y-105225770D01*
X143512235Y-105225767D01*
X143512231Y-105225750D01*
X143511921Y-105225001D01*
X143511770Y-105224635D01*
X143511656Y-105224359D01*
X143485976Y-105179880D01*
X143479057Y-105167895D01*
X143446692Y-105111442D01*
X143446691Y-105111441D01*
X143446682Y-105111425D01*
X143446420Y-105111084D01*
X143446149Y-105110729D01*
X143445777Y-105110241D01*
X143399665Y-105064129D01*
X143399417Y-105063879D01*
X143353789Y-105017974D01*
X143353786Y-105017972D01*
X143353769Y-105017955D01*
X143353149Y-105017479D01*
X143352841Y-105017242D01*
X143352587Y-105017046D01*
X143296159Y-104984466D01*
X143295836Y-104984279D01*
X143239843Y-104951724D01*
X143239165Y-104951444D01*
X143238855Y-104951315D01*
X143238462Y-104951151D01*
X143175743Y-104934345D01*
X143175382Y-104934247D01*
X143112655Y-104917236D01*
X143112233Y-104917181D01*
X143111751Y-104917117D01*
X143111174Y-104917039D01*
X143111153Y-104917039D01*
X143046169Y-104917039D01*
X143045796Y-104917038D01*
X143045565Y-104917037D01*
X142974798Y-104916822D01*
X142971411Y-104917039D01*
X135584492Y-104917039D01*
X135573682Y-104916567D01*
X135557977Y-104915192D01*
X135416315Y-104902795D01*
X135395031Y-104899041D01*
X135247702Y-104859562D01*
X135227394Y-104852171D01*
X135089151Y-104787705D01*
X135070440Y-104776901D01*
X134945491Y-104689409D01*
X134928934Y-104675516D01*
X134821083Y-104567665D01*
X134807190Y-104551108D01*
X134719698Y-104426159D01*
X134708896Y-104407452D01*
X134644425Y-104269199D01*
X134637037Y-104248897D01*
X134606241Y-104133971D01*
X134597557Y-104101565D01*
X134593805Y-104080289D01*
X134580035Y-103922952D01*
X134579565Y-103912074D01*
X134581108Y-102209598D01*
X135027390Y-102209598D01*
X135027390Y-102209601D01*
X135047804Y-102495033D01*
X135108628Y-102774637D01*
X135108630Y-102774643D01*
X135108631Y-102774646D01*
X135195233Y-103006833D01*
X135208635Y-103042766D01*
X135345770Y-103293909D01*
X135345775Y-103293917D01*
X135517254Y-103522987D01*
X135517270Y-103523005D01*
X135719594Y-103725329D01*
X135719612Y-103725345D01*
X135948682Y-103896824D01*
X135948690Y-103896829D01*
X136199833Y-104033964D01*
X136199832Y-104033964D01*
X136199836Y-104033965D01*
X136199839Y-104033967D01*
X136467954Y-104133969D01*
X136467960Y-104133970D01*
X136467962Y-104133971D01*
X136747566Y-104194795D01*
X136747568Y-104194795D01*
X136747572Y-104194796D01*
X137001220Y-104212937D01*
X137032999Y-104215210D01*
X137033000Y-104215210D01*
X137033001Y-104215210D01*
X137061595Y-104213164D01*
X137318428Y-104194796D01*
X137598046Y-104133969D01*
X137866161Y-104033967D01*
X138117315Y-103896826D01*
X138346395Y-103725339D01*
X138548739Y-103522995D01*
X138720226Y-103293915D01*
X138857367Y-103042761D01*
X138957369Y-102774646D01*
X138975647Y-102690622D01*
X139018195Y-102495033D01*
X139018195Y-102495032D01*
X139018196Y-102495028D01*
X139038610Y-102209600D01*
X139018196Y-101924172D01*
X138957369Y-101644554D01*
X138857367Y-101376439D01*
X138853410Y-101369193D01*
X138720229Y-101125290D01*
X138720224Y-101125282D01*
X138548745Y-100896212D01*
X138548729Y-100896194D01*
X138346405Y-100693870D01*
X138346387Y-100693854D01*
X138289588Y-100651335D01*
X140015500Y-100651335D01*
X140015500Y-102447070D01*
X140015501Y-102447076D01*
X140021908Y-102506683D01*
X140072202Y-102641528D01*
X140072206Y-102641535D01*
X140158452Y-102756744D01*
X140158455Y-102756747D01*
X140273664Y-102842993D01*
X140273671Y-102842997D01*
X140408517Y-102893291D01*
X140408516Y-102893291D01*
X140415444Y-102894035D01*
X140468127Y-102899700D01*
X142263872Y-102899699D01*
X142323483Y-102893291D01*
X142458331Y-102842996D01*
X142573546Y-102756746D01*
X142659796Y-102641531D01*
X142708810Y-102510116D01*
X142750681Y-102454184D01*
X142816145Y-102429766D01*
X142884418Y-102444617D01*
X142912673Y-102465769D01*
X143034599Y-102587695D01*
X143131384Y-102655465D01*
X143228165Y-102723232D01*
X143228167Y-102723233D01*
X143228170Y-102723235D01*
X143442337Y-102823103D01*
X143670592Y-102884263D01*
X143847034Y-102899700D01*
X143905999Y-102904859D01*
X143906000Y-102904859D01*
X143906001Y-102904859D01*
X143964966Y-102899700D01*
X144141408Y-102884263D01*
X144369663Y-102823103D01*
X144583830Y-102723235D01*
X144777401Y-102587695D01*
X144944495Y-102420601D01*
X145074730Y-102234605D01*
X145129307Y-102190981D01*
X145198805Y-102183787D01*
X145261160Y-102215310D01*
X145277879Y-102234605D01*
X145407890Y-102420278D01*
X145574917Y-102587305D01*
X145768421Y-102722800D01*
X145982507Y-102822629D01*
X145982516Y-102822633D01*
X146196000Y-102879834D01*
X146196000Y-101982212D01*
X146253007Y-102015125D01*
X146380174Y-102049200D01*
X146511826Y-102049200D01*
X146638993Y-102015125D01*
X146696000Y-101982212D01*
X146696000Y-102879833D01*
X146909483Y-102822633D01*
X146909492Y-102822629D01*
X147123578Y-102722800D01*
X147317082Y-102587305D01*
X147484105Y-102420282D01*
X147619600Y-102226778D01*
X147719429Y-102012692D01*
X147719432Y-102012686D01*
X147776636Y-101799200D01*
X146879012Y-101799200D01*
X146911925Y-101742193D01*
X146946000Y-101615026D01*
X146946000Y-101483374D01*
X146911925Y-101356207D01*
X146879012Y-101299200D01*
X147776636Y-101299200D01*
X147776635Y-101299199D01*
X147719432Y-101085713D01*
X147719429Y-101085707D01*
X147619600Y-100871622D01*
X147619599Y-100871620D01*
X147484113Y-100678126D01*
X147484108Y-100678120D01*
X147317082Y-100511094D01*
X147123578Y-100375599D01*
X146909492Y-100275770D01*
X146909486Y-100275767D01*
X146696000Y-100218564D01*
X146696000Y-101116188D01*
X146638993Y-101083275D01*
X146511826Y-101049200D01*
X146380174Y-101049200D01*
X146253007Y-101083275D01*
X146196000Y-101116188D01*
X146196000Y-100218564D01*
X146195999Y-100218564D01*
X145982513Y-100275767D01*
X145982507Y-100275770D01*
X145768422Y-100375599D01*
X145768420Y-100375600D01*
X145574926Y-100511086D01*
X145574920Y-100511091D01*
X145407891Y-100678120D01*
X145407890Y-100678122D01*
X145277880Y-100863795D01*
X145223303Y-100907419D01*
X145153804Y-100914612D01*
X145091450Y-100883090D01*
X145074730Y-100863794D01*
X144944494Y-100677797D01*
X144777402Y-100510706D01*
X144777395Y-100510701D01*
X144765204Y-100502165D01*
X144738521Y-100483481D01*
X144583834Y-100375167D01*
X144583830Y-100375165D01*
X144583828Y-100375164D01*
X144369663Y-100275297D01*
X144369659Y-100275296D01*
X144369655Y-100275294D01*
X144141413Y-100214138D01*
X144141403Y-100214136D01*
X143906001Y-100193541D01*
X143905999Y-100193541D01*
X143670596Y-100214136D01*
X143670586Y-100214138D01*
X143442344Y-100275294D01*
X143442335Y-100275298D01*
X143228171Y-100375164D01*
X143228169Y-100375165D01*
X143034600Y-100510703D01*
X142912673Y-100632630D01*
X142851350Y-100666114D01*
X142781658Y-100661130D01*
X142725725Y-100619258D01*
X142708810Y-100588281D01*
X142659797Y-100456871D01*
X142659793Y-100456864D01*
X142573547Y-100341655D01*
X142573544Y-100341652D01*
X142458335Y-100255406D01*
X142458328Y-100255402D01*
X142323482Y-100205108D01*
X142323483Y-100205108D01*
X142263883Y-100198701D01*
X142263881Y-100198700D01*
X142263873Y-100198700D01*
X142263864Y-100198700D01*
X140468129Y-100198700D01*
X140468123Y-100198701D01*
X140408516Y-100205108D01*
X140273671Y-100255402D01*
X140273664Y-100255406D01*
X140158455Y-100341652D01*
X140158452Y-100341655D01*
X140072206Y-100456864D01*
X140072202Y-100456871D01*
X140021908Y-100591717D01*
X140015501Y-100651316D01*
X140015500Y-100651335D01*
X138289588Y-100651335D01*
X138117317Y-100522375D01*
X138117309Y-100522370D01*
X137866166Y-100385235D01*
X137866167Y-100385235D01*
X137749324Y-100341655D01*
X137598046Y-100285231D01*
X137598043Y-100285230D01*
X137598037Y-100285228D01*
X137318433Y-100224404D01*
X137033001Y-100203990D01*
X137032999Y-100203990D01*
X136747566Y-100224404D01*
X136467962Y-100285228D01*
X136199833Y-100385235D01*
X135948690Y-100522370D01*
X135948682Y-100522375D01*
X135719612Y-100693854D01*
X135719594Y-100693870D01*
X135517270Y-100896194D01*
X135517254Y-100896212D01*
X135345775Y-101125282D01*
X135345770Y-101125290D01*
X135208635Y-101376433D01*
X135108628Y-101644562D01*
X135047804Y-101924166D01*
X135027390Y-102209598D01*
X134581108Y-102209598D01*
X134586826Y-95901535D01*
X139990100Y-95901535D01*
X139990100Y-97697270D01*
X139990101Y-97697276D01*
X139996508Y-97756883D01*
X140046802Y-97891728D01*
X140046806Y-97891735D01*
X140133052Y-98006944D01*
X140133055Y-98006947D01*
X140248264Y-98093193D01*
X140248271Y-98093197D01*
X140383117Y-98143491D01*
X140383116Y-98143491D01*
X140390044Y-98144235D01*
X140442727Y-98149900D01*
X142238472Y-98149899D01*
X142298083Y-98143491D01*
X142432931Y-98093196D01*
X142548146Y-98006946D01*
X142634396Y-97891731D01*
X142683410Y-97760316D01*
X142725281Y-97704384D01*
X142790745Y-97679966D01*
X142859018Y-97694817D01*
X142887273Y-97715969D01*
X143009199Y-97837895D01*
X143105984Y-97905665D01*
X143202765Y-97973432D01*
X143202767Y-97973433D01*
X143202770Y-97973435D01*
X143416937Y-98073303D01*
X143645192Y-98134463D01*
X143821634Y-98149900D01*
X143880599Y-98155059D01*
X143880600Y-98155059D01*
X143880601Y-98155059D01*
X143939566Y-98149900D01*
X144116008Y-98134463D01*
X144344263Y-98073303D01*
X144558430Y-97973435D01*
X144752001Y-97837895D01*
X144919095Y-97670801D01*
X145049330Y-97484805D01*
X145103907Y-97441181D01*
X145173405Y-97433987D01*
X145235760Y-97465510D01*
X145252479Y-97484805D01*
X145382490Y-97670478D01*
X145549517Y-97837505D01*
X145743021Y-97973000D01*
X145957107Y-98072829D01*
X145957116Y-98072833D01*
X146170600Y-98130034D01*
X146170600Y-97232412D01*
X146227607Y-97265325D01*
X146354774Y-97299400D01*
X146486426Y-97299400D01*
X146613593Y-97265325D01*
X146670600Y-97232412D01*
X146670600Y-98130033D01*
X146884083Y-98072833D01*
X146884092Y-98072829D01*
X147098178Y-97973000D01*
X147291682Y-97837505D01*
X147458705Y-97670482D01*
X147594200Y-97476978D01*
X147694029Y-97262892D01*
X147694032Y-97262886D01*
X147751236Y-97049400D01*
X146853612Y-97049400D01*
X146886525Y-96992393D01*
X146920600Y-96865226D01*
X146920600Y-96733574D01*
X146886525Y-96606407D01*
X146853612Y-96549400D01*
X147751236Y-96549400D01*
X147751235Y-96549399D01*
X147694032Y-96335913D01*
X147694029Y-96335907D01*
X147594200Y-96121822D01*
X147594199Y-96121820D01*
X147458713Y-95928326D01*
X147458708Y-95928320D01*
X147291682Y-95761294D01*
X147098178Y-95625799D01*
X146884092Y-95525970D01*
X146884086Y-95525967D01*
X146670600Y-95468764D01*
X146670600Y-96366388D01*
X146613593Y-96333475D01*
X146486426Y-96299400D01*
X146354774Y-96299400D01*
X146227607Y-96333475D01*
X146170600Y-96366388D01*
X146170600Y-95468764D01*
X146170599Y-95468764D01*
X145957113Y-95525967D01*
X145957107Y-95525970D01*
X145743022Y-95625799D01*
X145743020Y-95625800D01*
X145549526Y-95761286D01*
X145549520Y-95761291D01*
X145382491Y-95928320D01*
X145382490Y-95928322D01*
X145252480Y-96113995D01*
X145197903Y-96157619D01*
X145128404Y-96164812D01*
X145066050Y-96133290D01*
X145049330Y-96113994D01*
X144919094Y-95927997D01*
X144752002Y-95760906D01*
X144751995Y-95760901D01*
X144739804Y-95752365D01*
X144713121Y-95733681D01*
X144558434Y-95625367D01*
X144558430Y-95625365D01*
X144558428Y-95625364D01*
X144344263Y-95525497D01*
X144344259Y-95525496D01*
X144344255Y-95525494D01*
X144116013Y-95464338D01*
X144116003Y-95464336D01*
X143880601Y-95443741D01*
X143880599Y-95443741D01*
X143645196Y-95464336D01*
X143645186Y-95464338D01*
X143416944Y-95525494D01*
X143416935Y-95525498D01*
X143202771Y-95625364D01*
X143202769Y-95625365D01*
X143009200Y-95760903D01*
X142887273Y-95882830D01*
X142825950Y-95916314D01*
X142756258Y-95911330D01*
X142700325Y-95869458D01*
X142683410Y-95838481D01*
X142634397Y-95707071D01*
X142634393Y-95707064D01*
X142548147Y-95591855D01*
X142548144Y-95591852D01*
X142432935Y-95505606D01*
X142432928Y-95505602D01*
X142298082Y-95455308D01*
X142298083Y-95455308D01*
X142238483Y-95448901D01*
X142238481Y-95448900D01*
X142238473Y-95448900D01*
X142238464Y-95448900D01*
X140442729Y-95448900D01*
X140442723Y-95448901D01*
X140383116Y-95455308D01*
X140248271Y-95505602D01*
X140248264Y-95505606D01*
X140133055Y-95591852D01*
X140133052Y-95591855D01*
X140046806Y-95707064D01*
X140046802Y-95707071D01*
X139996508Y-95841917D01*
X139990101Y-95901516D01*
X139990100Y-95901535D01*
X134586826Y-95901535D01*
X134591178Y-91100935D01*
X139913900Y-91100935D01*
X139913900Y-92896670D01*
X139913901Y-92896676D01*
X139920308Y-92956283D01*
X139970602Y-93091128D01*
X139970606Y-93091135D01*
X140056852Y-93206344D01*
X140056855Y-93206347D01*
X140172064Y-93292593D01*
X140172071Y-93292597D01*
X140306917Y-93342891D01*
X140306916Y-93342891D01*
X140313844Y-93343635D01*
X140366527Y-93349300D01*
X142162272Y-93349299D01*
X142221883Y-93342891D01*
X142356731Y-93292596D01*
X142471946Y-93206346D01*
X142558196Y-93091131D01*
X142607210Y-92959716D01*
X142649081Y-92903784D01*
X142714545Y-92879366D01*
X142782818Y-92894217D01*
X142811073Y-92915369D01*
X142932999Y-93037295D01*
X143012795Y-93093169D01*
X143126565Y-93172832D01*
X143126567Y-93172833D01*
X143126570Y-93172835D01*
X143340737Y-93272703D01*
X143568992Y-93333863D01*
X143745434Y-93349300D01*
X143804399Y-93354459D01*
X143804400Y-93354459D01*
X143804401Y-93354459D01*
X143843634Y-93351026D01*
X144039808Y-93333863D01*
X144268063Y-93272703D01*
X144482230Y-93172835D01*
X144675801Y-93037295D01*
X144842895Y-92870201D01*
X144973130Y-92684205D01*
X145027707Y-92640581D01*
X145097205Y-92633387D01*
X145159560Y-92664910D01*
X145176279Y-92684205D01*
X145306290Y-92869878D01*
X145473317Y-93036905D01*
X145666821Y-93172400D01*
X145880907Y-93272229D01*
X145880916Y-93272233D01*
X146094400Y-93329434D01*
X146094400Y-92431812D01*
X146151407Y-92464725D01*
X146278574Y-92498800D01*
X146410226Y-92498800D01*
X146537393Y-92464725D01*
X146594400Y-92431812D01*
X146594400Y-93329433D01*
X146807883Y-93272233D01*
X146807892Y-93272229D01*
X147021978Y-93172400D01*
X147215482Y-93036905D01*
X147382505Y-92869882D01*
X147518000Y-92676378D01*
X147617829Y-92462292D01*
X147617832Y-92462286D01*
X147675036Y-92248800D01*
X146777412Y-92248800D01*
X146810325Y-92191793D01*
X146844400Y-92064626D01*
X146844400Y-91932974D01*
X146810325Y-91805807D01*
X146777412Y-91748800D01*
X147675036Y-91748800D01*
X147675035Y-91748799D01*
X147617832Y-91535313D01*
X147617829Y-91535307D01*
X147518000Y-91321222D01*
X147517999Y-91321220D01*
X147382513Y-91127726D01*
X147382508Y-91127720D01*
X147215482Y-90960694D01*
X147021978Y-90825199D01*
X146807892Y-90725370D01*
X146807886Y-90725367D01*
X146594400Y-90668164D01*
X146594400Y-91565788D01*
X146537393Y-91532875D01*
X146410226Y-91498800D01*
X146278574Y-91498800D01*
X146151407Y-91532875D01*
X146094400Y-91565788D01*
X146094400Y-90668164D01*
X146094399Y-90668164D01*
X145880913Y-90725367D01*
X145880907Y-90725370D01*
X145666822Y-90825199D01*
X145666820Y-90825200D01*
X145473326Y-90960686D01*
X145473320Y-90960691D01*
X145306291Y-91127720D01*
X145306290Y-91127722D01*
X145176280Y-91313395D01*
X145121703Y-91357019D01*
X145052204Y-91364212D01*
X144989850Y-91332690D01*
X144973130Y-91313394D01*
X144842894Y-91127397D01*
X144675802Y-90960306D01*
X144675795Y-90960301D01*
X144482234Y-90824767D01*
X144482230Y-90824765D01*
X144462252Y-90815449D01*
X144268063Y-90724897D01*
X144268059Y-90724896D01*
X144268055Y-90724894D01*
X144039813Y-90663738D01*
X144039803Y-90663736D01*
X143804401Y-90643141D01*
X143804399Y-90643141D01*
X143568996Y-90663736D01*
X143568986Y-90663738D01*
X143340744Y-90724894D01*
X143340735Y-90724898D01*
X143126571Y-90824764D01*
X143126569Y-90824765D01*
X142933000Y-90960303D01*
X142811073Y-91082230D01*
X142749750Y-91115714D01*
X142680058Y-91110730D01*
X142624125Y-91068858D01*
X142607210Y-91037881D01*
X142558197Y-90906471D01*
X142558193Y-90906464D01*
X142471947Y-90791255D01*
X142471944Y-90791252D01*
X142356735Y-90705006D01*
X142356728Y-90705002D01*
X142221882Y-90654708D01*
X142221883Y-90654708D01*
X142162283Y-90648301D01*
X142162281Y-90648300D01*
X142162273Y-90648300D01*
X142162264Y-90648300D01*
X140366529Y-90648300D01*
X140366523Y-90648301D01*
X140306916Y-90654708D01*
X140172071Y-90705002D01*
X140172064Y-90705006D01*
X140056855Y-90791252D01*
X140056852Y-90791255D01*
X139970606Y-90906464D01*
X139970602Y-90906471D01*
X139920308Y-91041317D01*
X139913901Y-91100916D01*
X139913900Y-91100935D01*
X134591178Y-91100935D01*
X134617034Y-62576735D01*
X145761300Y-62576735D01*
X145761300Y-64372470D01*
X145761301Y-64372476D01*
X145767708Y-64432083D01*
X145818002Y-64566928D01*
X145818006Y-64566935D01*
X145904252Y-64682144D01*
X145904255Y-64682147D01*
X146019464Y-64768393D01*
X146019471Y-64768397D01*
X146154317Y-64818691D01*
X146154316Y-64818691D01*
X146161244Y-64819435D01*
X146213927Y-64825100D01*
X148009672Y-64825099D01*
X148069283Y-64818691D01*
X148204131Y-64768396D01*
X148319346Y-64682146D01*
X148405596Y-64566931D01*
X148454610Y-64435516D01*
X148496481Y-64379584D01*
X148561945Y-64355166D01*
X148630218Y-64370017D01*
X148658473Y-64391169D01*
X148780399Y-64513095D01*
X148877184Y-64580865D01*
X148973965Y-64648632D01*
X148973967Y-64648633D01*
X148973970Y-64648635D01*
X149188137Y-64748503D01*
X149416392Y-64809663D01*
X149592834Y-64825100D01*
X149651799Y-64830259D01*
X149651800Y-64830259D01*
X149651801Y-64830259D01*
X149710766Y-64825100D01*
X149887208Y-64809663D01*
X150115463Y-64748503D01*
X150329630Y-64648635D01*
X150523201Y-64513095D01*
X150645129Y-64391166D01*
X150706448Y-64357684D01*
X150776140Y-64362668D01*
X150832074Y-64404539D01*
X150848989Y-64435517D01*
X150898002Y-64566928D01*
X150898006Y-64566935D01*
X150984252Y-64682144D01*
X150984255Y-64682147D01*
X151099464Y-64768393D01*
X151099471Y-64768397D01*
X151234317Y-64818691D01*
X151234316Y-64818691D01*
X151241244Y-64819435D01*
X151293927Y-64825100D01*
X153089672Y-64825099D01*
X153149283Y-64818691D01*
X153284131Y-64768396D01*
X153399346Y-64682146D01*
X153485596Y-64566931D01*
X153534610Y-64435516D01*
X153576481Y-64379584D01*
X153641945Y-64355166D01*
X153710218Y-64370017D01*
X153738473Y-64391169D01*
X153860399Y-64513095D01*
X153957184Y-64580865D01*
X154053965Y-64648632D01*
X154053967Y-64648633D01*
X154053970Y-64648635D01*
X154268137Y-64748503D01*
X154496392Y-64809663D01*
X154672834Y-64825100D01*
X154731799Y-64830259D01*
X154731800Y-64830259D01*
X154731801Y-64830259D01*
X154790766Y-64825100D01*
X154967208Y-64809663D01*
X155195463Y-64748503D01*
X155409630Y-64648635D01*
X155603201Y-64513095D01*
X155770295Y-64346001D01*
X155905835Y-64152430D01*
X156005703Y-63938263D01*
X156066863Y-63710008D01*
X156087459Y-63474600D01*
X156066863Y-63239192D01*
X156005703Y-63010937D01*
X155905835Y-62796771D01*
X155830928Y-62689791D01*
X155770294Y-62603197D01*
X155769232Y-62602135D01*
X169865900Y-62602135D01*
X169865900Y-64397870D01*
X169865901Y-64397876D01*
X169872308Y-64457483D01*
X169922602Y-64592328D01*
X169922606Y-64592335D01*
X170008852Y-64707544D01*
X170008855Y-64707547D01*
X170124064Y-64793793D01*
X170124071Y-64793797D01*
X170258917Y-64844091D01*
X170258916Y-64844091D01*
X170265844Y-64844835D01*
X170318527Y-64850500D01*
X172114272Y-64850499D01*
X172173883Y-64844091D01*
X172308731Y-64793796D01*
X172423946Y-64707546D01*
X172510196Y-64592331D01*
X172559210Y-64460916D01*
X172601081Y-64404984D01*
X172666545Y-64380566D01*
X172734818Y-64395417D01*
X172763073Y-64416569D01*
X172884999Y-64538495D01*
X172981784Y-64606265D01*
X173078565Y-64674032D01*
X173078567Y-64674033D01*
X173078570Y-64674035D01*
X173292737Y-64773903D01*
X173520992Y-64835063D01*
X173697434Y-64850500D01*
X173756399Y-64855659D01*
X173756400Y-64855659D01*
X173756401Y-64855659D01*
X173815366Y-64850500D01*
X173991808Y-64835063D01*
X174220063Y-64773903D01*
X174434230Y-64674035D01*
X174627801Y-64538495D01*
X174794895Y-64371401D01*
X174824237Y-64329495D01*
X174878813Y-64285871D01*
X174948311Y-64278677D01*
X175010666Y-64310199D01*
X175046081Y-64370429D01*
X175049102Y-64387366D01*
X175053908Y-64432083D01*
X175104202Y-64566928D01*
X175104206Y-64566935D01*
X175190452Y-64682144D01*
X175190455Y-64682147D01*
X175305664Y-64768393D01*
X175305671Y-64768397D01*
X175440517Y-64818691D01*
X175440516Y-64818691D01*
X175447444Y-64819435D01*
X175500127Y-64825100D01*
X177295872Y-64825099D01*
X177355483Y-64818691D01*
X177490331Y-64768396D01*
X177605546Y-64682146D01*
X177691796Y-64566931D01*
X177740810Y-64435516D01*
X177782681Y-64379584D01*
X177848145Y-64355166D01*
X177916418Y-64370017D01*
X177944673Y-64391169D01*
X178066599Y-64513095D01*
X178163384Y-64580865D01*
X178260165Y-64648632D01*
X178260167Y-64648633D01*
X178260170Y-64648635D01*
X178474337Y-64748503D01*
X178702592Y-64809663D01*
X178879034Y-64825100D01*
X178937999Y-64830259D01*
X178938000Y-64830259D01*
X178938001Y-64830259D01*
X178996966Y-64825100D01*
X179173408Y-64809663D01*
X179401663Y-64748503D01*
X179615830Y-64648635D01*
X179809401Y-64513095D01*
X179976495Y-64346001D01*
X180112035Y-64152430D01*
X180211903Y-63938263D01*
X180273063Y-63710008D01*
X180293659Y-63474600D01*
X180273063Y-63239192D01*
X180211903Y-63010937D01*
X180112035Y-62796771D01*
X180037128Y-62689791D01*
X179976494Y-62603197D01*
X179809402Y-62436106D01*
X179809395Y-62436101D01*
X179615834Y-62300567D01*
X179615830Y-62300565D01*
X179598432Y-62292452D01*
X179401663Y-62200697D01*
X179401659Y-62200696D01*
X179401655Y-62200694D01*
X179173413Y-62139538D01*
X179173403Y-62139536D01*
X178938001Y-62118941D01*
X178937999Y-62118941D01*
X178702596Y-62139536D01*
X178702586Y-62139538D01*
X178474344Y-62200694D01*
X178474335Y-62200698D01*
X178260171Y-62300564D01*
X178260169Y-62300565D01*
X178066600Y-62436103D01*
X177944673Y-62558030D01*
X177883350Y-62591514D01*
X177813658Y-62586530D01*
X177757725Y-62544658D01*
X177740810Y-62513681D01*
X177691797Y-62382271D01*
X177691793Y-62382264D01*
X177605547Y-62267055D01*
X177605544Y-62267052D01*
X177490335Y-62180806D01*
X177490328Y-62180802D01*
X177355482Y-62130508D01*
X177355483Y-62130508D01*
X177295883Y-62124101D01*
X177295881Y-62124100D01*
X177295873Y-62124100D01*
X177295864Y-62124100D01*
X175500129Y-62124100D01*
X175500123Y-62124101D01*
X175440516Y-62130508D01*
X175305671Y-62180802D01*
X175305664Y-62180806D01*
X175190455Y-62267052D01*
X175190452Y-62267055D01*
X175104206Y-62382264D01*
X175104202Y-62382271D01*
X175053908Y-62517117D01*
X175047501Y-62576716D01*
X175047500Y-62576735D01*
X175047500Y-62596078D01*
X175027815Y-62663117D01*
X174975011Y-62708872D01*
X174905853Y-62718816D01*
X174842297Y-62689791D01*
X174821925Y-62667202D01*
X174794891Y-62628594D01*
X174627802Y-62461506D01*
X174627795Y-62461501D01*
X174591527Y-62436106D01*
X174550918Y-62407671D01*
X174434234Y-62325967D01*
X174434230Y-62325965D01*
X174379764Y-62300567D01*
X174220063Y-62226097D01*
X174220059Y-62226096D01*
X174220055Y-62226094D01*
X173991813Y-62164938D01*
X173991803Y-62164936D01*
X173756401Y-62144341D01*
X173756399Y-62144341D01*
X173520996Y-62164936D01*
X173520986Y-62164938D01*
X173292744Y-62226094D01*
X173292735Y-62226098D01*
X173078571Y-62325964D01*
X173078569Y-62325965D01*
X172885000Y-62461503D01*
X172763073Y-62583430D01*
X172701750Y-62616914D01*
X172632058Y-62611930D01*
X172576125Y-62570058D01*
X172559210Y-62539081D01*
X172510197Y-62407671D01*
X172510193Y-62407664D01*
X172423947Y-62292455D01*
X172423944Y-62292452D01*
X172308735Y-62206206D01*
X172308728Y-62206202D01*
X172173882Y-62155908D01*
X172173883Y-62155908D01*
X172114283Y-62149501D01*
X172114281Y-62149500D01*
X172114273Y-62149500D01*
X172114264Y-62149500D01*
X170318529Y-62149500D01*
X170318523Y-62149501D01*
X170258916Y-62155908D01*
X170124071Y-62206202D01*
X170124064Y-62206206D01*
X170008855Y-62292452D01*
X170008852Y-62292455D01*
X169922606Y-62407664D01*
X169922602Y-62407671D01*
X169872308Y-62542517D01*
X169865901Y-62602116D01*
X169865900Y-62602135D01*
X155769232Y-62602135D01*
X155603202Y-62436106D01*
X155603195Y-62436101D01*
X155409634Y-62300567D01*
X155409630Y-62300565D01*
X155392232Y-62292452D01*
X155195463Y-62200697D01*
X155195459Y-62200696D01*
X155195455Y-62200694D01*
X154967213Y-62139538D01*
X154967203Y-62139536D01*
X154731801Y-62118941D01*
X154731799Y-62118941D01*
X154496396Y-62139536D01*
X154496386Y-62139538D01*
X154268144Y-62200694D01*
X154268135Y-62200698D01*
X154053971Y-62300564D01*
X154053969Y-62300565D01*
X153860400Y-62436103D01*
X153738473Y-62558030D01*
X153677150Y-62591514D01*
X153607458Y-62586530D01*
X153551525Y-62544658D01*
X153534610Y-62513681D01*
X153485597Y-62382271D01*
X153485593Y-62382264D01*
X153399347Y-62267055D01*
X153399344Y-62267052D01*
X153284135Y-62180806D01*
X153284128Y-62180802D01*
X153149282Y-62130508D01*
X153149283Y-62130508D01*
X153089683Y-62124101D01*
X153089681Y-62124100D01*
X153089673Y-62124100D01*
X153089664Y-62124100D01*
X151293929Y-62124100D01*
X151293923Y-62124101D01*
X151234316Y-62130508D01*
X151099471Y-62180802D01*
X151099464Y-62180806D01*
X150984255Y-62267052D01*
X150984252Y-62267055D01*
X150898006Y-62382264D01*
X150898003Y-62382269D01*
X150848989Y-62513683D01*
X150807117Y-62569616D01*
X150741653Y-62594033D01*
X150673380Y-62579181D01*
X150645126Y-62558030D01*
X150523202Y-62436106D01*
X150523195Y-62436101D01*
X150329634Y-62300567D01*
X150329630Y-62300565D01*
X150312232Y-62292452D01*
X150115463Y-62200697D01*
X150115459Y-62200696D01*
X150115455Y-62200694D01*
X149887213Y-62139538D01*
X149887203Y-62139536D01*
X149651801Y-62118941D01*
X149651799Y-62118941D01*
X149416396Y-62139536D01*
X149416386Y-62139538D01*
X149188144Y-62200694D01*
X149188135Y-62200698D01*
X148973971Y-62300564D01*
X148973969Y-62300565D01*
X148780400Y-62436103D01*
X148658473Y-62558030D01*
X148597150Y-62591514D01*
X148527458Y-62586530D01*
X148471525Y-62544658D01*
X148454610Y-62513681D01*
X148405597Y-62382271D01*
X148405593Y-62382264D01*
X148319347Y-62267055D01*
X148319344Y-62267052D01*
X148204135Y-62180806D01*
X148204128Y-62180802D01*
X148069282Y-62130508D01*
X148069283Y-62130508D01*
X148009683Y-62124101D01*
X148009681Y-62124100D01*
X148009673Y-62124100D01*
X148009664Y-62124100D01*
X146213929Y-62124100D01*
X146213923Y-62124101D01*
X146154316Y-62130508D01*
X146019471Y-62180802D01*
X146019464Y-62180806D01*
X145904255Y-62267052D01*
X145904252Y-62267055D01*
X145818006Y-62382264D01*
X145818002Y-62382271D01*
X145767708Y-62517117D01*
X145761301Y-62576716D01*
X145761300Y-62576735D01*
X134617034Y-62576735D01*
X134627832Y-50665193D01*
X134627898Y-50664221D01*
X134627898Y-50630082D01*
X134627898Y-50596074D01*
X134628369Y-50585306D01*
X134642143Y-50427915D01*
X134645895Y-50406641D01*
X134685378Y-50259301D01*
X134692764Y-50239009D01*
X134757235Y-50100757D01*
X134768031Y-50082059D01*
X134855530Y-49957101D01*
X134869411Y-49940558D01*
X134977277Y-49832696D01*
X134993826Y-49818811D01*
X135118772Y-49731324D01*
X135137488Y-49720520D01*
X135275727Y-49656059D01*
X135296030Y-49648668D01*
X135443369Y-49609189D01*
X135464646Y-49605438D01*
X135541438Y-49598720D01*
X135622376Y-49591640D01*
X135633348Y-49591168D01*
X136354947Y-49592162D01*
G37*
%TD.AperFunction*%
%TA.AperFunction,Conductor*%
G36*
X145026668Y-126680641D02*
G01*
X145026669Y-126680641D01*
X145042439Y-126659760D01*
X145042440Y-126659757D01*
X145141568Y-126460684D01*
X145168281Y-126366796D01*
X145205560Y-126307702D01*
X145268869Y-126278144D01*
X145338109Y-126287505D01*
X145391296Y-126332815D01*
X145406814Y-126366794D01*
X145433578Y-126460860D01*
X145433583Y-126460873D01*
X145532746Y-126660018D01*
X145532751Y-126660026D01*
X145666828Y-126837573D01*
X145831245Y-126987458D01*
X145831247Y-126987460D01*
X146020403Y-127104580D01*
X146020404Y-127104580D01*
X146020407Y-127104582D01*
X146214332Y-127179709D01*
X146269732Y-127222281D01*
X146293323Y-127288048D01*
X146277612Y-127356128D01*
X146227588Y-127404907D01*
X146214341Y-127410957D01*
X146066296Y-127468310D01*
X146020409Y-127486087D01*
X146020403Y-127486089D01*
X145831247Y-127603209D01*
X145831245Y-127603211D01*
X145666828Y-127753096D01*
X145532751Y-127930643D01*
X145532746Y-127930651D01*
X145433583Y-128129796D01*
X145433577Y-128129811D01*
X145407074Y-128222962D01*
X145369795Y-128282056D01*
X145306485Y-128311613D01*
X145237246Y-128302251D01*
X145184059Y-128256941D01*
X145168542Y-128222962D01*
X145142038Y-128129811D01*
X145142037Y-128129807D01*
X145142032Y-128129796D01*
X145042869Y-127930651D01*
X145042864Y-127930643D01*
X144908787Y-127753096D01*
X144744370Y-127603211D01*
X144744368Y-127603209D01*
X144555212Y-127486089D01*
X144555206Y-127486086D01*
X144425775Y-127435945D01*
X144360592Y-127410693D01*
X144305193Y-127368121D01*
X144281602Y-127302354D01*
X144297313Y-127234274D01*
X144347337Y-127185495D01*
X144360594Y-127179440D01*
X144554985Y-127104133D01*
X144554986Y-127104132D01*
X144671135Y-127032215D01*
X144064255Y-126425335D01*
X144070469Y-126425335D01*
X144172202Y-126398076D01*
X144263414Y-126345415D01*
X144337888Y-126270941D01*
X144390549Y-126179729D01*
X144417808Y-126077996D01*
X144417808Y-126071781D01*
X145026668Y-126680641D01*
G37*
%TD.AperFunction*%
%TA.AperFunction,Conductor*%
G36*
X171557808Y-126077996D02*
G01*
X171585067Y-126179729D01*
X171637728Y-126270941D01*
X171712202Y-126345415D01*
X171803414Y-126398076D01*
X171905147Y-126425335D01*
X171911360Y-126425335D01*
X171304479Y-127032215D01*
X171420631Y-127104133D01*
X171420632Y-127104134D01*
X171615021Y-127179440D01*
X171670422Y-127222013D01*
X171694013Y-127287780D01*
X171678302Y-127355860D01*
X171628278Y-127404639D01*
X171615021Y-127410694D01*
X171420409Y-127486086D01*
X171420403Y-127486089D01*
X171231247Y-127603209D01*
X171231245Y-127603211D01*
X171066828Y-127753096D01*
X170932751Y-127930643D01*
X170932746Y-127930651D01*
X170833583Y-128129796D01*
X170833577Y-128129811D01*
X170807074Y-128222962D01*
X170769795Y-128282056D01*
X170706485Y-128311613D01*
X170637246Y-128302251D01*
X170584059Y-128256941D01*
X170568542Y-128222962D01*
X170542038Y-128129811D01*
X170542037Y-128129807D01*
X170542032Y-128129796D01*
X170442869Y-127930651D01*
X170442864Y-127930643D01*
X170308787Y-127753096D01*
X170144370Y-127603211D01*
X170144368Y-127603209D01*
X169955212Y-127486089D01*
X169955203Y-127486085D01*
X169861764Y-127449887D01*
X169761283Y-127410960D01*
X169705883Y-127368389D01*
X169682292Y-127302623D01*
X169698003Y-127234542D01*
X169748027Y-127185763D01*
X169761274Y-127179712D01*
X169955209Y-127104582D01*
X170144370Y-126987459D01*
X170308789Y-126837571D01*
X170442866Y-126660024D01*
X170542037Y-126460863D01*
X170568803Y-126366790D01*
X170606080Y-126307702D01*
X170669389Y-126278144D01*
X170738629Y-126287506D01*
X170791815Y-126332815D01*
X170807333Y-126366795D01*
X170834044Y-126460677D01*
X170834047Y-126460683D01*
X170933172Y-126659754D01*
X170933174Y-126659756D01*
X170948946Y-126680641D01*
X171557808Y-126071780D01*
X171557808Y-126077996D01*
G37*
%TD.AperFunction*%
%TA.AperFunction,Conductor*%
G36*
X165223000Y-84179400D02*
G01*
X165870828Y-84179400D01*
X165870844Y-84179399D01*
X165930372Y-84172998D01*
X165930379Y-84172996D01*
X166065086Y-84122754D01*
X166065089Y-84122752D01*
X166132388Y-84072372D01*
X166197852Y-84047954D01*
X166266125Y-84062805D01*
X166315531Y-84112209D01*
X166330700Y-84171638D01*
X166330700Y-85307700D01*
X166311015Y-85374739D01*
X166258211Y-85420494D01*
X166206700Y-85431700D01*
X165026076Y-85431700D01*
X164997242Y-85437434D01*
X164997243Y-85437435D01*
X164881093Y-85460539D01*
X164881089Y-85460540D01*
X164826221Y-85483268D01*
X164744507Y-85517114D01*
X164744498Y-85517119D01*
X164691179Y-85552747D01*
X164621582Y-85599249D01*
X161466047Y-88754784D01*
X161466043Y-88754789D01*
X161420169Y-88823448D01*
X161420168Y-88823450D01*
X161383916Y-88877703D01*
X161382845Y-88879708D01*
X161382006Y-88880561D01*
X161380531Y-88882770D01*
X161380112Y-88882490D01*
X161333883Y-88929553D01*
X161265745Y-88945014D01*
X161200065Y-88921183D01*
X161157696Y-88865626D01*
X161149486Y-88821256D01*
X161149486Y-83744155D01*
X161169171Y-83677116D01*
X161221975Y-83631361D01*
X161291133Y-83621417D01*
X161354689Y-83650442D01*
X161375060Y-83673031D01*
X161394505Y-83700801D01*
X161561599Y-83867895D01*
X161638135Y-83921486D01*
X161755165Y-84003432D01*
X161755167Y-84003433D01*
X161755170Y-84003435D01*
X161969337Y-84103303D01*
X162197592Y-84164463D01*
X162368319Y-84179400D01*
X162432999Y-84185059D01*
X162433000Y-84185059D01*
X162433001Y-84185059D01*
X162497681Y-84179400D01*
X162668408Y-84164463D01*
X162896663Y-84103303D01*
X163110830Y-84003435D01*
X163304401Y-83867895D01*
X163426717Y-83745578D01*
X163488036Y-83712096D01*
X163557728Y-83717080D01*
X163613662Y-83758951D01*
X163630577Y-83789928D01*
X163679646Y-83921488D01*
X163679649Y-83921493D01*
X163765809Y-84036587D01*
X163765812Y-84036590D01*
X163880906Y-84122750D01*
X163880913Y-84122754D01*
X164015620Y-84172996D01*
X164015627Y-84172998D01*
X164075155Y-84179399D01*
X164075172Y-84179400D01*
X164723000Y-84179400D01*
X164723000Y-83262412D01*
X164780007Y-83295325D01*
X164907174Y-83329400D01*
X165038826Y-83329400D01*
X165165993Y-83295325D01*
X165223000Y-83262412D01*
X165223000Y-84179400D01*
G37*
%TD.AperFunction*%
%TD*%
M02*
